<svg width="24" height="24" viewBox="0 0 24 24" fill="none" xmlns="http://www.w3.org/2000/svg">
<g clip-path="url(#clip0_559_176)">
<path d="M14.321 3.7L15.9496 7.12298C16.1727 7.5928 16.7759 8.06304 17.2901 8.15305L20.3484 8.72884C22.3068 9.09324 22.7301 10.5248 21.2975 11.9096L18.8576 14.2548C18.4502 14.6479 18.2034 15.4302 18.3235 15.9849L18.9463 18.9596C19.4357 21.308 18.1781 22.1921 16.1402 20.9287L13.2933 19.1635C12.7749 18.841 11.9208 18.8311 11.3972 19.1257L8.48403 20.7682C6.39872 21.9421 5.17438 21.0105 5.75831 18.6857L6.50392 15.7438C6.64316 15.1939 6.43831 14.4021 6.04521 13.9947L3.68661 11.5503C2.31077 10.1133 2.79084 8.7006 4.7589 8.41207L7.83175 7.96376C8.35061 7.88384 8.97271 7.45072 9.21025 6.98588L10.976 3.62477C11.9395 1.81462 13.4421 1.84757 14.321 3.7Z" fill="white"/>
</g>
<defs>
<clipPath id="clip0_559_176">
<rect width="24" height="24" fill="white"/>
</clipPath>
</defs>
</svg>
