<svg width="24" height="24" viewBox="0 0 24 24" fill="none" xmlns="http://www.w3.org/2000/svg">
<g clip-path="url(#clip0_559_177)">
<path d="M11.4171 3.8599C11.8605 3.02686 12.3398 2.78174 12.6695 2.7891C12.9988 2.79669 13.4647 3.06252 13.8688 3.91413L13.8693 3.915L15.4985 7.33772C15.6525 7.66189 15.9181 7.95493 16.2046 8.17615C16.4552 8.36954 16.7572 8.53624 17.0693 8.61689L17.2038 8.64586L20.2563 9.22002L20.2568 9.2209C21.1495 9.387 21.5207 9.7613 21.6154 10.0788C21.6984 10.3578 21.6278 10.7914 21.1707 11.3187L20.9499 11.5499L18.5113 13.8942L18.5104 13.8946C18.2311 14.1642 18.0304 14.5391 17.9149 14.9107C17.7999 15.2807 17.7515 15.704 17.8337 16.0872L18.4567 19.0611C18.6924 20.1925 18.4505 20.7162 18.204 20.8894C17.9581 21.0621 17.3851 21.1127 16.4033 20.504L13.5569 18.7391L13.5578 18.7387C13.2031 18.518 12.7651 18.4208 12.3558 18.4137C11.9466 18.4066 11.5094 18.4889 11.1523 18.6897L11.1514 18.6902L8.23835 20.3326C7.23478 20.8974 6.66402 20.8246 6.42382 20.6415C6.18388 20.4584 5.96122 19.9266 6.24241 18.8071L6.98809 15.8665C7.08356 15.4894 7.05605 15.0658 6.95794 14.6899C6.85982 14.3142 6.6771 13.9289 6.40531 13.6472L4.04614 11.2029C3.41995 10.5481 3.33532 10.0262 3.44247 9.71208C3.5494 9.3986 3.93412 9.03901 4.83085 8.9074L7.90376 8.45876L7.90769 8.45789C8.26185 8.40333 8.61856 8.23654 8.91439 8.02794C9.20797 7.82089 9.48584 7.54063 9.65205 7.21818L9.65336 7.21862L11.4171 3.8599Z" stroke="white"/>
</g>
<defs>
<clipPath id="clip0_559_177">
<rect width="24" height="24" fill="white"/>
</clipPath>
</defs>
</svg>
