<svg width="243" height="243" viewBox="0 0 243 243" fill="none" xmlns="http://www.w3.org/2000/svg">
<path d="M36.1924 52.168H176.11C192.892 52.168 206.439 65.7149 206.439 82.4969V116.061" stroke="#FF9C08" stroke-width="22.0574" stroke-miterlimit="10" stroke-linecap="round" stroke-linejoin="round"/>
<path d="M68.1389 20.2202L36.1924 52.1664L68.1389 84.1133" stroke="#FF9C08" stroke-width="22.0574" stroke-miterlimit="10" stroke-linecap="round" stroke-linejoin="round"/>
<path opacity="0.4" fill-rule="evenodd" clip-rule="evenodd" d="M47.2215 126.574C47.2215 120.483 42.2838 115.545 36.1928 115.545C30.1018 115.545 25.1641 120.483 25.1641 126.574V160.138C25.1641 183.011 43.6487 201.495 66.5217 201.495H179.817L166.696 214.616C162.389 218.923 162.389 225.906 166.696 230.213C171.003 234.52 177.986 234.52 182.293 230.213L214.239 198.267C215.051 197.456 215.723 196.531 216.24 195.53C216.735 194.574 217.094 193.536 217.292 192.443C217.409 191.796 217.47 191.135 217.47 190.469C217.47 189.973 217.436 189.48 217.371 188.993C217.039 186.507 215.878 184.282 214.176 182.606L182.293 150.723C177.986 146.416 171.003 146.416 166.696 150.723C162.389 155.03 162.389 162.013 166.696 166.32L179.814 179.438H66.5217C55.8307 179.438 47.2215 170.829 47.2215 160.138V126.574Z" fill="#FF9C08"/>
</svg>
