<svg width="24" height="24" viewBox="0 0 24 24" fill="none" xmlns="http://www.w3.org/2000/svg">
<path d="M18.04 9.79999C17.62 10.21 17.38 10.8 17.44 11.43C17.53 12.51 18.52 13.3 19.6 13.3H21.5V14.49C21.5 16.56 19.81 18.25 17.74 18.25H7.63C7.94 17.99 8.21 17.67 8.42 17.31C8.79 16.71 9 16 9 15.25C9 13.04 7.21 11.25 5 11.25C4.06 11.25 3.19 11.58 2.5 12.13V7.76001C2.5 5.69001 4.18999 4 6.25999 4H17.74C19.81 4 21.5 5.69001 21.5 7.76001V9.20001H19.48C18.92 9.20001 18.41 9.41999 18.04 9.79999Z" stroke="#292D32" stroke-width="1.5" stroke-linecap="round" stroke-linejoin="round"/>
<path d="M22.5608 10.2202V12.2802C22.5608 12.8302 22.1208 13.2802 21.5608 13.3002H19.6008C18.5208 13.3002 17.5308 12.5102 17.4408 11.4302C17.3808 10.8002 17.6208 10.2102 18.0408 9.80017C18.4108 9.42017 18.9208 9.2002 19.4808 9.2002H21.5608C22.1208 9.2202 22.5608 9.67015 22.5608 10.2202Z" stroke="#292D32" stroke-width="1.5" stroke-linecap="round" stroke-linejoin="round"/>
<path opacity="0.4" d="M7 8.25H14" stroke="#292D32" stroke-width="1.5" stroke-linecap="round" stroke-linejoin="round"/>
<path d="M9 15.25C9 16 8.79 16.71 8.42 17.31C8.21 17.67 7.94 17.99 7.63 18.25C6.93 18.88 6.01 19.25 5 19.25C3.54 19.25 2.27 18.47 1.58 17.31C1.21 16.71 1 16 1 15.25C1 13.99 1.58 12.86 2.5 12.13C3.19 11.58 4.06 11.25 5 11.25C7.21 11.25 9 13.04 9 15.25Z" stroke="#292D32" stroke-width="1.5" stroke-miterlimit="10" stroke-linecap="round" stroke-linejoin="round"/>
<path d="M3.43945 15.25L4.42944 16.24L6.55945 14.27" stroke="#292D32" stroke-width="1.5" stroke-linecap="round" stroke-linejoin="round"/>
</svg>
