<svg width="306" height="320" viewBox="0 0 306 320" fill="none" xmlns="http://www.w3.org/2000/svg">
<path d="M159.5 77.3233L180.814 23.2054L159.5 96.621V124.309L100.28 161.996L108.515 292.746L74 105.711L159.5 77.3233Z" fill="black"/>
<path d="M162.893 128.634L181.058 23.1946L171.37 154.644L138.188 185.129L109.365 297L124.987 204.357L123.292 152.196L162.893 128.634Z" fill="black"/>
<path d="M146.06 213.341L113.241 288.784L153.932 206.698L178.637 183.346V157.335L146.06 184.394V213.341Z" fill="black"/>
<path d="M218.126 107.376L184.823 130.659V167.158L216.552 136.393L218.126 107.376Z" fill="black"/>
<path d="M199.709 86.551L181.906 23.6934L207.702 81.9365L223.082 73.0566L221.992 98.1578L198.619 116.127L199.709 86.551Z" fill="black"/>
<path d="M211.573 57.1909L182.386 23L213.995 47.5418L232.524 41.179L230.586 64.1126L211.573 75.0904V57.1909Z" fill="black"/>
</svg>
