<svg width="1000" height="1000" viewBox="0 0 1000 1000" fill="none" xmlns="http://www.w3.org/2000/svg">
<circle cx="500" cy="500" r="500" fill="#C5BCB1"/>
<path d="M695.911 311.021L540.133 241.639C517.271 231.537 482.713 231.537 459.851 241.639L304.073 311.021C264.729 328.566 258.881 352.491 258.881 365.251C258.881 378.011 264.729 401.936 304.073 419.481L459.851 488.864C471.282 493.915 485.637 496.573 499.992 496.573C514.347 496.573 528.702 493.915 540.133 488.864L695.911 419.481C735.254 401.936 741.103 378.011 741.103 365.251C741.103 352.491 735.52 328.566 695.911 311.021Z" fill="white"/>
<path d="M500.008 633.98C489.906 633.98 479.805 631.853 470.501 627.866L291.329 548.116C263.948 535.887 242.682 503.19 242.682 473.151C242.682 462.251 251.454 453.479 262.353 453.479C273.252 453.479 282.025 462.251 282.025 473.151C282.025 487.506 293.987 506.114 307.279 511.962L486.451 591.712C494.957 595.434 504.793 595.434 513.3 591.712L692.471 511.962C705.763 506.114 717.726 487.771 717.726 473.151C717.726 462.251 726.498 453.479 737.397 453.479C748.296 453.479 757.069 462.251 757.069 473.151C757.069 502.924 735.802 535.887 708.421 548.116L529.25 627.866C520.211 631.853 510.11 633.98 500.008 633.98Z" fill="white"/>
<path d="M500.008 765.857C489.906 765.857 479.805 763.731 470.501 759.743L291.329 679.993C261.822 666.967 242.682 637.46 242.682 605.028C242.682 594.129 251.454 585.356 262.353 585.356C273.252 585.356 282.025 594.129 282.025 605.028C282.025 621.776 291.861 636.928 307.279 643.84L486.451 723.59C494.957 727.311 504.793 727.311 513.3 723.59L692.471 643.84C707.624 637.194 717.726 621.776 717.726 605.028C717.726 594.129 726.498 585.356 737.397 585.356C748.296 585.356 757.069 594.129 757.069 605.028C757.069 637.46 737.929 666.701 708.421 679.993L529.25 759.743C520.211 763.731 510.11 765.857 500.008 765.857Z" fill="white"/>
</svg>
