<svg width="1000" height="1000" viewBox="0 0 1000 1000" fill="none" xmlns="http://www.w3.org/2000/svg">
<circle cx="500" cy="500" r="500" fill="#292D32"/>
<path d="M518.469 799.153C469.301 799.153 425.836 792.404 388.075 778.907C350.315 765.57 318.58 745.887 292.871 719.856C267.162 693.825 247.719 661.93 234.543 624.17C221.367 586.409 214.779 543.185 214.779 494.499C214.779 447.419 221.448 405.32 234.784 368.202C248.282 331.084 267.805 299.591 293.353 273.721C319.062 247.69 350.235 227.846 386.87 214.188C423.667 200.53 465.283 193.701 511.721 193.701C556.873 193.701 596.401 201.092 630.305 215.875C664.369 230.497 692.81 250.341 715.627 275.408C738.605 300.314 755.798 328.353 767.206 359.525C778.775 390.698 784.56 422.834 784.56 455.935C784.56 479.234 783.435 502.854 781.186 526.796C778.936 550.738 774.196 572.751 766.965 592.836C759.734 612.761 748.567 628.829 733.463 641.041C718.519 653.253 698.273 659.359 672.725 659.359C661.477 659.359 649.104 657.592 635.607 654.057C622.11 650.521 610.139 644.657 599.695 636.462C589.25 628.267 583.064 617.26 581.136 603.441H578.243C574.387 612.761 568.442 621.599 560.408 629.954C552.534 638.31 542.17 644.978 529.316 649.959C516.622 654.94 501.116 657.109 482.798 656.467C461.909 655.663 443.511 651.004 427.603 642.487C411.696 633.811 398.359 622.081 387.593 607.298C376.988 592.354 368.954 575.081 363.491 555.478C358.189 535.714 355.537 514.423 355.537 491.606C355.537 469.914 358.751 450.07 365.178 432.073C371.606 414.077 380.523 398.33 391.932 384.833C403.501 371.335 416.998 360.57 432.424 352.536C448.01 344.341 464.801 339.279 482.798 337.351C498.866 335.744 513.488 336.467 526.664 339.52C539.84 342.413 550.686 346.831 559.203 352.777C567.719 358.561 573.102 364.988 575.351 372.058H578.243V345.064H629.34V562.949C629.34 576.447 633.117 588.337 640.669 598.621C648.221 608.905 659.227 614.047 673.689 614.047C690.079 614.047 702.612 608.423 711.289 597.175C720.126 585.927 726.152 568.573 729.365 545.114C732.74 521.654 734.427 491.606 734.427 454.971C734.427 433.439 731.454 412.229 725.509 391.34C719.724 370.291 710.887 350.607 698.996 332.29C687.267 313.972 672.403 297.823 654.407 283.844C636.41 269.864 615.281 258.938 591.018 251.064C566.915 243.03 539.519 239.013 508.828 239.013C471.068 239.013 437.244 244.878 407.357 256.608C377.631 268.177 352.324 285.129 331.435 307.464C310.707 329.638 294.88 356.633 283.953 388.448C273.187 420.103 267.805 456.095 267.805 496.427C267.805 537.401 273.187 573.796 283.953 605.611C294.88 637.426 310.948 664.26 332.158 686.113C353.529 707.966 379.961 724.516 411.455 735.764C442.949 747.172 479.263 752.876 520.398 752.876C538.073 752.876 555.507 751.189 572.7 747.815C589.893 744.44 605.077 740.745 618.253 736.728C631.429 732.711 640.91 729.738 646.694 727.81L660.192 772.158C650.229 776.336 637.214 780.514 621.146 784.691C605.238 788.869 588.206 792.324 570.049 795.056C552.052 797.787 534.859 799.153 518.469 799.153ZM490.511 607.298C512.042 607.298 529.476 602.959 542.813 594.283C556.15 585.606 565.871 572.51 571.977 554.996C578.083 537.481 581.136 515.387 581.136 488.714C581.136 461.719 577.761 440.67 571.013 425.566C564.264 410.462 554.302 399.857 541.126 393.751C527.95 387.645 511.721 384.592 492.439 384.592C474.121 384.592 458.454 389.412 445.439 399.053C432.585 408.533 422.703 421.227 415.793 437.135C409.045 452.882 405.67 470.075 405.67 488.714C405.67 509.281 408.402 528.644 413.865 546.801C419.328 564.797 428.246 579.419 440.619 590.667C452.991 601.754 469.622 607.298 490.511 607.298Z" fill="white"/>
</svg>
