<svg width="1000" height="1000" viewBox="0 0 1000 1000" fill="none" xmlns="http://www.w3.org/2000/svg">
<circle cx="500" cy="500" r="500" fill="#3366CC"/>
<path d="M234.164 509.304L388.347 509.304C429.02 509.304 456.932 540.141 456.932 577.889L456.932 663.488C456.932 701.237 429.02 732.072 388.347 732.072L302.749 732.072C265 732.072 234.164 701.237 234.164 663.488L234.164 509.304Z" fill="white" stroke="white" stroke-width="39.875" stroke-linecap="round" stroke-linejoin="round"/>
<path d="M243.161 509.307C243.161 348.478 273.2 321.896 363.584 268.198" stroke="white" stroke-width="58" stroke-linecap="round" stroke-linejoin="round"/>
<path d="M543.324 509.303L697.508 509.303C738.18 509.303 766.093 540.14 766.093 577.889L766.093 663.488C766.093 701.236 738.18 732.072 697.508 732.072L611.644 732.072C573.895 732.072 543.059 701.236 543.059 663.488L543.059 509.303" fill="white"/>
<path d="M543.324 509.303L697.508 509.303C738.18 509.303 766.093 540.14 766.093 577.889L766.093 663.488C766.093 701.236 738.18 732.072 697.508 732.072L611.644 732.072C573.895 732.072 543.059 701.236 543.059 663.488L543.059 509.303" stroke="white" stroke-width="39.875" stroke-linecap="round" stroke-linejoin="round"/>
<path d="M552.322 509.307C552.322 348.477 582.361 321.896 672.745 268.197" stroke="white" stroke-width="58" stroke-linecap="round" stroke-linejoin="round"/>
</svg>
