<svg width="1000" height="1000" viewBox="0 0 1000 1000" fill="none" xmlns="http://www.w3.org/2000/svg">
<circle cx="500" cy="500" r="500" fill="#3984E9"/>
<path fill-rule="evenodd" clip-rule="evenodd" d="M381.475 707.328H396.29C404.291 707.328 415.254 712.662 419.995 719.181L464.442 778.443C483.999 804.519 516.001 804.519 535.558 778.443L580.005 719.181C585.635 711.773 594.524 707.328 603.71 707.328H618.526C737.051 707.328 796.314 648.065 796.314 529.54V381.383C796.314 262.857 737.051 203.595 618.526 203.595H381.475C262.949 203.595 203.686 262.857 203.686 381.383V529.54C203.686 677.697 262.949 707.328 381.475 707.328ZM606.239 446.833C591.558 446.833 579.656 458.735 579.656 473.417C579.656 488.098 591.558 500 606.239 500H606.478C621.16 500 633.061 488.098 633.061 473.417C633.061 458.735 621.16 446.833 606.478 446.833H606.239ZM473.297 473.417C473.297 458.735 485.198 446.833 499.88 446.833H500.119C514.8 446.833 526.702 458.735 526.702 473.417C526.702 488.098 514.8 500 500.119 500H499.88C485.198 500 473.297 488.098 473.297 473.417ZM393.521 446.833C378.839 446.833 366.937 458.735 366.937 473.417C366.937 488.098 378.839 500 393.521 500H393.759C408.441 500 420.343 488.098 420.343 473.417C420.343 458.735 408.441 446.833 393.759 446.833H393.521Z" fill="white"/>
</svg>
