<svg width="638" height="638" viewBox="0 0 638 638" fill="none" xmlns="http://www.w3.org/2000/svg">
<path d="M462.859 96.0191L400.335 33.495C355.675 -11.165 282.305 -11.165 237.645 33.495L175.121 96.0191C162.68 108.46 162.68 128.876 175.121 141.317L296.66 262.856C309.101 275.297 329.198 275.297 341.639 262.856L463.178 141.317C475.3 128.876 475.3 108.46 462.859 96.0191Z" fill="#292D32"/>
<path d="M96.0171 175.123L33.4931 237.648C-11.167 282.308 -11.167 355.678 33.4931 400.338L96.0171 462.862C108.458 475.303 128.555 475.303 140.996 462.862L262.535 341.323C274.976 328.882 274.976 308.785 262.535 296.344L141.315 175.123C128.874 162.682 108.458 162.682 96.0171 175.123Z" fill="#292D32"/>
<path d="M604.505 237.648L541.981 175.123C529.54 162.682 509.443 162.682 497.002 175.123L375.463 296.663C363.022 309.104 363.022 329.201 375.463 341.642L497.002 463.181C509.443 475.622 529.54 475.622 541.981 463.181L604.505 400.657C649.165 355.678 649.165 282.308 604.505 237.648Z" fill="#292D32"/>
<path d="M175.131 541.983L237.655 604.507C282.315 649.167 355.685 649.167 400.345 604.507L462.869 541.983C475.311 529.542 475.311 509.445 462.869 497.004L341.33 375.465C328.889 363.024 308.792 363.024 296.351 375.465L174.812 497.004C162.69 509.126 162.69 529.542 175.131 541.983Z" fill="#292D32"/>
</svg>
