<svg width="1000" height="1000" viewBox="0 0 1000 1000" fill="none" xmlns="http://www.w3.org/2000/svg">
<circle cx="500" cy="500" r="500" fill="#37C49C"/>
<path d="M643.859 277.019L581.335 214.495C536.675 169.835 463.305 169.835 418.645 214.495L356.121 277.019C343.68 289.46 343.68 309.876 356.121 322.317L477.66 443.856C490.101 456.297 510.198 456.297 522.639 443.856L644.178 322.317C656.3 309.876 656.3 289.46 643.859 277.019Z" fill="white"/>
<path d="M277.017 356.124L214.493 418.648C169.833 463.308 169.833 536.678 214.493 581.338L277.017 643.862C289.458 656.303 309.555 656.303 321.996 643.862L443.535 522.323C455.976 509.882 455.976 489.785 443.535 477.344L322.315 356.124C309.874 343.683 289.458 343.683 277.017 356.124Z" fill="white"/>
<path d="M785.505 418.648L722.981 356.124C710.54 343.683 690.443 343.683 678.002 356.124L556.463 477.663C544.022 490.104 544.022 510.201 556.463 522.642L678.002 644.181C690.443 656.622 710.54 656.622 722.981 644.181L785.505 581.657C830.165 536.678 830.165 463.308 785.505 418.648Z" fill="white"/>
<path d="M356.131 722.983L418.655 785.507C463.315 830.167 536.685 830.167 581.345 785.507L643.869 722.983C656.31 710.542 656.31 690.445 643.869 678.004L522.33 556.465C509.889 544.024 489.792 544.024 477.351 556.465L355.812 678.004C343.69 690.126 343.69 710.542 356.131 722.983Z" fill="white"/>
</svg>
