<svg width="1000" height="1000" viewBox="0 0 1000 1000" fill="none" xmlns="http://www.w3.org/2000/svg">
<circle cx="500" cy="500" r="500" fill="#C5D773"/>
<path d="M518.024 711.574C525.329 713.273 525.996 722.84 518.882 725.211L476.88 739.035C371.346 773.061 315.787 744.617 281.494 639.081L247.467 534.077C213.441 428.541 241.619 372.716 347.155 338.689L361.085 334.076C371.794 330.529 382.216 341.271 379.175 352.135C377.668 357.519 376.218 363.139 374.802 368.994L348.75 480.379C319.508 605.586 362.307 674.703 487.514 704.476L518.024 711.574Z" fill="white"/>
<path d="M637.441 266.293L593.047 255.926C504.259 234.925 451.358 252.204 420.255 316.536C412.28 332.752 405.9 352.423 400.583 375.019L374.532 486.402C348.48 597.521 382.772 652.282 493.625 678.6L538.285 689.233C553.704 692.955 568.059 695.347 581.35 696.411C664.29 704.386 708.419 665.574 730.749 569.608L756.8 458.49C782.852 347.373 748.825 292.345 637.441 266.293ZM587.465 535.316C585.072 544.354 577.097 550.202 568.059 550.202C566.464 550.202 564.869 549.937 563.008 549.671L485.65 529.999C475.017 527.341 468.637 516.442 471.295 505.808C473.954 495.175 484.853 488.795 495.486 491.453L572.844 511.125C583.743 513.783 590.123 524.682 587.465 535.316ZM665.354 445.465C662.961 454.502 654.986 460.351 645.948 460.351C644.353 460.351 642.758 460.085 640.897 459.819L511.968 427.123C501.335 424.464 494.955 413.565 497.613 402.932C500.271 392.298 511.17 385.918 521.804 388.577L650.733 421.274C661.632 423.667 668.012 434.566 665.354 445.465Z" fill="white"/>
</svg>
