<svg width="2515" height="553" viewBox="0 0 2515 553" fill="none" xmlns="http://www.w3.org/2000/svg">
<path d="M218.317 396.039L232.693 324.157C234.404 315.602 235.26 311.325 232.941 308.496C230.621 305.667 226.259 305.667 217.535 305.667H170.944C158.839 305.667 152.787 305.667 150.567 301.746C148.346 297.825 151.46 292.635 157.688 282.255L222.344 174.495C228.572 164.115 231.686 158.925 229.466 155.004C227.246 151.083 221.194 151.083 209.089 151.083H135.031C124.897 151.083 119.83 151.083 117.525 147.757C115.22 144.43 116.999 139.686 120.557 130.197L201.713 -86.2194C203.533 -91.0713 204.442 -93.4973 206.428 -94.8736C208.415 -96.25 211.005 -96.25 216.187 -96.25H363.672C375.777 -96.25 381.829 -96.25 384.049 -92.329C386.269 -88.408 383.155 -83.2181 376.928 -72.8384L312.272 34.9218C306.044 45.3015 302.93 50.4913 305.15 54.4123C307.37 58.3333 313.422 58.3333 325.527 58.3333H360.058C373.548 58.3333 380.293 58.3333 382.429 62.6059C384.566 66.8785 380.519 72.2745 372.425 83.0667L316.775 157.267C308.681 168.059 304.633 173.455 306.77 177.727C308.906 182 315.651 182 329.141 182H390.285C404.036 182 410.912 182 413.031 186.333C415.151 190.667 410.929 196.094 402.487 206.949L245.677 408.561C229.773 429.01 221.82 439.234 216.258 436.688C210.696 434.143 213.236 421.442 218.317 396.039Z" fill="#FCB951"/>
<path d="M97.2656 305.668L50.8906 367.501H112.724L66.349 429.335" stroke="#FCB951" stroke-opacity="0.25" stroke-width="30.9167" stroke-linecap="round" stroke-linejoin="round"/>
<path d="M468.266 -65.334L421.891 -3.50065H483.724L437.349 58.3327" stroke="#FCB951" stroke-opacity="0.25" stroke-width="30.9167" stroke-linecap="round" stroke-linejoin="round"/>
<path d="M946.379 284.067L958.004 225.942C959.387 219.025 960.079 215.566 958.204 213.278C956.328 210.991 952.801 210.991 945.747 210.991H908.072C898.284 210.991 893.391 210.991 891.595 207.82C889.8 204.65 892.318 200.453 897.354 192.06L949.635 104.924C954.671 96.5313 957.189 92.3348 955.394 89.1642C953.599 85.9937 948.705 85.9937 938.917 85.9937H879.033C870.839 85.9937 866.742 85.9937 864.878 83.3037C863.014 80.6137 864.452 76.7775 867.329 69.105L932.953 -105.891C934.424 -109.814 935.16 -111.776 936.766 -112.889C938.372 -114.002 940.467 -114.002 944.657 -114.002H1063.91C1073.7 -114.002 1078.6 -114.002 1080.39 -110.831C1082.19 -107.661 1079.67 -103.464 1074.63 -95.0712L1022.35 -7.93549C1017.32 0.457619 1014.8 4.65417 1016.59 7.82474C1018.39 10.9953 1023.28 10.9953 1033.07 10.9953H1060.99C1071.9 10.9953 1077.35 10.9953 1079.08 14.4501C1080.81 17.905 1077.54 22.2683 1070.99 30.9949L1025.99 90.9935C1019.45 99.7201 1016.18 104.083 1017.9 107.538C1019.63 110.993 1025.08 110.993 1035.99 110.993H1085.43C1096.55 110.993 1102.11 110.993 1103.83 114.497C1105.54 118.001 1102.13 122.39 1095.3 131.167L968.502 294.192C955.642 310.727 949.212 318.995 944.714 316.936C940.217 314.878 942.271 304.607 946.379 284.067Z" fill="#FCB951"/>
<path d="M848.495 210.992L810.996 260.991H860.995L823.496 310.99" stroke="#FCB951" stroke-opacity="0.25" stroke-width="24.9995" stroke-linecap="round" stroke-linejoin="round"/>
<path d="M1148.49 -89.0039L1110.99 -39.005H1160.99L1123.49 10.9939" stroke="#FCB951" stroke-opacity="0.25" stroke-width="24.9995" stroke-linecap="round" stroke-linejoin="round"/>
<path d="M642.186 170.528L647.999 141.466C648.691 138.008 649.036 136.278 648.099 135.135C647.161 133.991 645.398 133.991 641.87 133.991H623.034C618.14 133.991 615.693 133.991 614.795 132.406C613.898 130.82 615.157 128.722 617.675 124.526L643.815 80.9588C646.333 76.7624 647.592 74.6641 646.694 73.0789C645.796 71.4937 643.35 71.4937 638.456 71.4937H608.514C604.417 71.4937 602.369 71.4937 601.437 70.1487C600.505 68.8037 601.224 66.8857 602.663 63.0495L635.474 -24.4467C636.209 -26.4082 636.577 -27.389 637.38 -27.9455C638.183 -28.502 639.231 -28.502 641.326 -28.502H700.953C705.847 -28.502 708.294 -28.502 709.191 -26.9167C710.089 -25.3315 708.83 -23.2332 706.312 -19.0368L680.172 24.5301C677.654 28.7266 676.395 30.8248 677.293 32.4101C678.19 33.9953 680.637 33.9953 685.531 33.9953H699.492C704.946 33.9953 707.673 33.9953 708.536 35.7227C709.4 37.4501 707.764 39.6317 704.491 43.9949L681.992 73.9935C678.72 78.3567 677.084 80.5383 677.948 82.2657C678.811 83.9931 681.538 83.9931 686.992 83.9931H711.712C717.272 83.9931 720.052 83.9931 720.908 85.7451C721.765 87.497 720.059 89.6913 716.645 94.0798L653.248 175.591C646.818 183.858 643.603 187.992 641.354 186.962C639.105 185.933 640.132 180.798 642.186 170.528Z" fill="#FCB951"/>
<path d="M593.245 133.992L574.496 158.991H599.495L580.746 183.99" stroke="#FCB951" stroke-opacity="0.25" stroke-width="12.4995" stroke-linecap="round" stroke-linejoin="round"/>
<path d="M743.239 -16.0039L724.49 8.995H749.489L730.74 33.9939" stroke="#FCB951" stroke-opacity="0.25" stroke-width="12.4995" stroke-linecap="round" stroke-linejoin="round"/>
<path d="M1656.01 396.039L1670.38 324.157C1672.09 315.602 1672.95 311.325 1670.63 308.496C1668.31 305.667 1663.95 305.667 1655.22 305.667H1608.63C1596.53 305.667 1590.48 305.667 1588.26 301.746C1586.04 297.825 1589.15 292.635 1595.38 282.255L1660.03 174.495C1666.26 164.115 1669.38 158.925 1667.16 155.004C1664.94 151.083 1658.88 151.083 1646.78 151.083H1572.72C1562.59 151.083 1557.52 151.083 1555.21 147.757C1552.91 144.43 1554.69 139.686 1558.25 130.197L1639.4 -86.2194C1641.22 -91.0713 1642.13 -93.4973 1644.12 -94.8736C1646.1 -96.25 1648.69 -96.25 1653.88 -96.25H1801.36C1813.47 -96.25 1819.52 -96.25 1821.74 -92.329C1823.96 -88.408 1820.84 -83.2181 1814.62 -72.8384L1749.96 34.9218C1743.73 45.3015 1740.62 50.4913 1742.84 54.4123C1745.06 58.3333 1751.11 58.3333 1763.22 58.3333H1797.75C1811.24 58.3333 1817.98 58.3333 1820.12 62.6059C1822.26 66.8785 1818.21 72.2745 1810.11 83.0667L1754.46 157.267C1746.37 168.059 1742.32 173.455 1744.46 177.727C1746.6 182 1753.34 182 1766.83 182H1827.97C1841.73 182 1848.6 182 1850.72 186.333C1852.84 190.667 1848.62 196.094 1840.18 206.949L1683.37 408.561C1667.46 429.01 1659.51 439.234 1653.95 436.688C1648.39 434.143 1650.93 421.442 1656.01 396.039Z" fill="#FCB951"/>
<path d="M1534.96 305.668L1488.58 367.501H1550.41L1504.04 429.335" stroke="#FCB951" stroke-opacity="0.25" stroke-width="30.9167" stroke-linecap="round" stroke-linejoin="round"/>
<path d="M1905.96 -65.334L1859.58 -3.50065H1921.41L1875.04 58.3327" stroke="#FCB951" stroke-opacity="0.25" stroke-width="30.9167" stroke-linecap="round" stroke-linejoin="round"/>
<path d="M2338.86 201.364L2348.45 153.401C2349.59 147.693 2350.16 144.839 2348.62 142.951C2347.07 141.063 2344.16 141.063 2338.34 141.063H2307.25C2299.17 141.063 2295.13 141.063 2293.65 138.447C2292.17 135.831 2294.25 132.368 2298.4 125.442L2341.55 53.5397C2345.7 46.614 2347.78 43.151 2346.3 40.5348C2344.82 37.9185 2340.78 37.9185 2332.7 37.9185H2283.29C2276.52 37.9185 2273.14 37.9185 2271.61 35.6988C2270.07 33.4791 2271.25 30.3135 2273.63 23.9824L2327.78 -120.42C2328.99 -123.658 2329.6 -125.277 2330.93 -126.195C2332.25 -127.113 2333.98 -127.113 2337.44 -127.113H2435.85C2443.92 -127.113 2447.96 -127.113 2449.44 -124.497C2450.92 -121.881 2448.85 -118.418 2444.69 -111.492L2401.55 -39.5897C2397.39 -32.6639 2395.32 -29.201 2396.8 -26.5847C2398.28 -23.9684 2402.32 -23.9684 2410.39 -23.9684H2433.43C2442.44 -23.9684 2446.94 -23.9684 2448.36 -21.1176C2449.79 -18.2667 2447.09 -14.6662 2441.69 -7.46523L2404.55 42.0443C2399.15 49.2453 2396.45 52.8458 2397.88 55.6966C2399.3 58.5475 2403.8 58.5475 2412.81 58.5475H2453.6C2462.78 58.5475 2467.37 58.5475 2468.78 61.4389C2470.19 64.3303 2467.38 67.9517 2461.74 75.1944L2357.11 209.719C2346.5 223.363 2341.2 230.185 2337.48 228.487C2333.77 226.788 2335.47 218.313 2338.86 201.364Z" fill="#FCB951"/>
<path d="M2258.09 141.064L2227.14 182.322H2268.4L2237.46 223.58" stroke="#FCB951" stroke-opacity="0.25" stroke-width="20.629" stroke-linecap="round" stroke-linejoin="round"/>
<path d="M1290.19 242.528L1296 213.466C1296.69 210.008 1297.04 208.278 1296.1 207.135C1295.16 205.991 1293.4 205.991 1289.87 205.991H1271.03C1266.14 205.991 1263.69 205.991 1262.8 204.406C1261.9 202.82 1263.16 200.722 1265.67 196.526L1291.81 152.959C1294.33 148.762 1295.59 146.664 1294.69 145.079C1293.8 143.494 1291.35 143.494 1286.46 143.494H1256.51C1252.42 143.494 1250.37 143.494 1249.44 142.149C1248.5 140.804 1249.22 138.886 1250.66 135.05L1283.47 47.5533C1284.21 45.5918 1284.58 44.611 1285.38 44.0545C1286.18 43.498 1287.23 43.498 1289.33 43.498H1348.95C1353.85 43.498 1356.29 43.498 1357.19 45.0833C1358.09 46.6685 1356.83 48.7668 1354.31 52.9632L1328.17 96.5301C1325.65 100.727 1324.4 102.825 1325.29 104.41C1326.19 105.995 1328.64 105.995 1333.53 105.995H1347.49C1352.95 105.995 1355.67 105.995 1356.54 107.723C1357.4 109.45 1355.76 111.632 1352.49 115.995L1329.99 145.994C1326.72 150.357 1325.08 152.538 1325.95 154.266C1326.81 155.993 1329.54 155.993 1334.99 155.993H1359.71C1365.27 155.993 1368.05 155.993 1368.91 157.745C1369.77 159.497 1368.06 161.691 1364.65 166.08L1301.25 247.591C1294.82 255.858 1291.6 259.992 1289.35 258.962C1287.11 257.933 1288.13 252.798 1290.19 242.528Z" fill="#FCB951"/>
<path d="M1241.25 205.992L1222.5 230.991H1247.49L1228.75 255.99" stroke="#FCB951" stroke-opacity="0.25" stroke-width="12.4995" stroke-linecap="round" stroke-linejoin="round"/>
<path d="M1391.24 55.9961L1372.49 80.995H1397.49L1378.74 105.994" stroke="#FCB951" stroke-opacity="0.25" stroke-width="12.4995" stroke-linecap="round" stroke-linejoin="round"/>
<path d="M2080.19 130.528L2086 101.466C2086.69 98.0077 2087.04 96.2784 2086.1 95.1346C2085.16 93.9909 2083.4 93.9909 2079.87 93.9909H2061.03C2056.14 93.9909 2053.69 93.9909 2052.8 92.4057C2051.9 90.8204 2053.16 88.7222 2055.67 84.5257L2081.81 40.9588C2084.33 36.7624 2085.59 34.6641 2084.69 33.0789C2083.8 31.4937 2081.35 31.4937 2076.46 31.4937H2046.51C2042.42 31.4937 2040.37 31.4937 2039.44 30.1487C2038.5 28.8037 2039.22 26.8857 2040.66 23.0495L2073.47 -64.4467C2074.21 -66.4082 2074.58 -67.389 2075.38 -67.9455C2076.18 -68.502 2077.23 -68.502 2079.33 -68.502H2138.95C2143.85 -68.502 2146.29 -68.502 2147.19 -66.9167C2148.09 -65.3315 2146.83 -63.2332 2144.31 -59.0368L2118.17 -15.4699C2115.65 -11.2734 2114.4 -9.17519 2115.29 -7.58995C2116.19 -6.0047 2118.64 -6.0047 2123.53 -6.0047H2137.49C2142.95 -6.0047 2145.67 -6.0047 2146.54 -4.27732C2147.4 -2.54993 2145.76 -0.36834 2142.49 3.99485L2119.99 33.9935C2116.72 38.3567 2115.08 40.5383 2115.95 42.2657C2116.81 43.9931 2119.54 43.9931 2124.99 43.9931H2149.71C2155.27 43.9931 2158.05 43.9931 2158.91 45.7451C2159.77 47.497 2158.06 49.6913 2154.65 54.0798L2091.25 135.591C2084.82 143.858 2081.6 147.992 2079.35 146.962C2077.11 145.933 2078.13 140.798 2080.19 130.528Z" fill="#FCB951"/>
<path d="M2031.25 93.9922L2012.5 118.991H2037.49L2018.75 143.99" stroke="#FCB951" stroke-opacity="0.25" stroke-width="12.4995" stroke-linecap="round" stroke-linejoin="round"/>
<path d="M2181.24 -56.0039L2162.49 -31.005H2187.49L2168.74 -6.0061" stroke="#FCB951" stroke-opacity="0.25" stroke-width="12.4995" stroke-linecap="round" stroke-linejoin="round"/>
</svg>
