<svg width="24" height="24" viewBox="0 0 24 24" fill="none" xmlns="http://www.w3.org/2000/svg">
<path fill-rule="evenodd" clip-rule="evenodd" d="M12.5291 2.7638C12.106 2.40965 11.389 2.41491 10.9824 2.76253L9.40397 4.1112C9.16543 4.31726 8.86135 4.47349 8.57999 4.57803C8.29785 4.68287 7.96655 4.7625 7.655 4.7625H5.925C5.27922 4.7625 4.745 5.29671 4.745 5.9425V7.6625C4.745 7.97454 4.66512 8.30333 4.56211 8.58161C4.45872 8.86092 4.3065 9.15824 4.11117 9.39264L4.10675 9.39794L2.75912 10.9851C2.75877 10.9855 2.75842 10.9859 2.75807 10.9863C2.41398 11.3971 2.41398 12.1079 2.75807 12.5187C2.75842 12.5191 2.75877 12.5195 2.75912 12.5199L4.11119 14.1123C4.30653 14.3467 4.45872 14.6441 4.56211 14.9234C4.66512 15.2017 4.745 15.5305 4.745 15.8425V17.5525C4.745 18.1983 5.27922 18.7325 5.925 18.7325H7.655C7.97054 18.7325 8.30182 18.8116 8.585 18.9174C8.86763 19.023 9.16814 19.1798 9.40492 19.3846C9.40535 19.385 9.40578 19.3854 9.4062 19.3857L10.981 20.7412C11.4037 21.095 12.1198 21.0901 12.5265 20.7434C12.5269 20.7431 12.5272 20.7428 12.5276 20.7425L14.1038 19.3857C14.1043 19.3853 14.1047 19.3849 14.1052 19.3845C14.3439 19.1781 14.6483 19.0216 14.93 18.917C15.2122 18.8121 15.5435 18.7325 15.855 18.7325H17.555C18.2008 18.7325 18.735 18.1983 18.735 17.5525V15.8525C18.735 15.537 18.8141 15.2057 18.9199 14.9225C19.0255 14.6399 19.1822 14.3394 19.387 14.1027C19.3874 14.1022 19.3878 14.1018 19.3882 14.1013L20.7437 12.5265C21.0975 12.1038 21.0926 11.3877 20.7459 10.981C20.7456 10.9806 20.7453 10.9803 20.745 10.9799L19.3882 9.4037C19.3879 9.40327 19.3875 9.40284 19.3871 9.40242C19.1807 9.16374 19.0242 8.85922 18.9195 8.57749C18.8146 8.29535 18.735 7.96404 18.735 7.6525V5.9525C18.735 5.30671 18.2008 4.7725 17.555 4.7725H15.855C15.5395 4.7725 15.2082 4.69337 14.925 4.58756C14.6424 4.48196 14.3418 4.32518 14.105 4.12031C14.1046 4.11996 14.1042 4.11962 14.1038 4.11927L12.5291 2.7638ZM10.0078 1.62229C10.9805 0.790799 12.5212 0.795427 13.4984 1.61903L13.5043 1.62404L15.0862 2.98573C15.1492 3.04035 15.2781 3.11822 15.45 3.18244C15.6218 3.24663 15.7705 3.2725 15.855 3.2725H17.555C19.0292 3.2725 20.235 4.47829 20.235 5.9525V7.6525C20.235 7.73096 20.2604 7.87965 20.3255 8.05501C20.3907 8.23028 20.4688 8.36017 20.5218 8.4213L20.5234 8.42322L21.885 10.0051C22.7167 10.9777 22.7121 12.5186 21.8885 13.4959L21.8835 13.5018L20.5234 15.0818L20.5218 15.0837C20.4672 15.1467 20.3893 15.2756 20.3251 15.4475C20.2609 15.6193 20.235 15.768 20.235 15.8525V17.5525C20.235 19.0267 19.0292 20.2325 17.555 20.2325H15.855C15.7765 20.2325 15.6279 20.2579 15.4525 20.323C15.2772 20.3882 15.1473 20.4663 15.0862 20.5193L15.0843 20.5209L13.5043 21.8809L13.5024 21.8825C12.5298 22.7142 10.9889 22.7096 10.0117 21.886L10.0057 21.881L8.42573 20.5209L8.42381 20.5193C8.36079 20.4647 8.23187 20.3868 8.06001 20.3226C7.88819 20.2584 7.73947 20.2325 7.655 20.2325H5.925C4.45079 20.2325 3.245 19.0267 3.245 17.5525V15.8425C3.245 15.7645 3.21989 15.6183 3.1554 15.4441C3.09194 15.2727 3.01509 15.1409 2.96052 15.0747L1.61088 13.4851C0.796368 12.5161 0.796375 10.9889 1.61089 10.0199L1.61328 10.0171L2.96051 8.43034C3.01508 8.36407 3.09194 8.23232 3.1554 8.06089C3.21989 7.88667 3.245 7.74046 3.245 7.6625V5.9425C3.245 4.46829 4.45079 3.2625 5.925 3.2625H7.655C7.73346 3.2625 7.88215 3.23713 8.05752 3.17197C8.23278 3.10684 8.36268 3.02871 8.42381 2.97573L8.42779 2.97228L10.0078 1.62229C10.0079 1.62223 10.0077 1.62235 10.0078 1.62229Z" fill="#EE7700"/>
<path fill-rule="evenodd" clip-rule="evenodd" d="M13.015 2.1925C12.315 1.6025 11.185 1.6025 10.495 2.1925L8.915 3.5425C8.615 3.8025 8.045 4.0125 7.655 4.0125H5.925C4.865 4.0125 3.995 4.8825 3.995 5.9425V7.6625C3.995 8.0525 3.785 8.6125 3.535 8.9125L2.185 10.5025C1.605 11.1925 1.605 12.3125 2.185 13.0025L3.535 14.5925C3.785 14.8925 3.995 15.4525 3.995 15.8425V17.5525C3.995 18.6125 4.865 19.4825 5.925 19.4825H7.655C8.055 19.4825 8.615 19.6925 8.915 19.9525L10.495 21.3125C11.195 21.9025 12.325 21.9025 13.015 21.3125L14.595 19.9525C14.895 19.6925 15.465 19.4825 15.855 19.4825H17.555C18.615 19.4825 19.485 18.6125 19.485 17.5525V15.8525C19.485 15.4525 19.695 14.8925 19.955 14.5925L21.315 13.0125C21.905 12.3125 21.905 11.1825 21.315 10.4925L19.955 8.9125C19.695 8.6125 19.485 8.0425 19.485 7.6525V5.9525C19.485 4.8925 18.615 4.0225 17.555 4.0225H15.855C15.455 4.0225 14.895 3.8125 14.595 3.5525L13.015 2.1925ZM15.8959 9.85254C16.1885 9.55934 16.188 9.08447 15.8948 8.79188C15.6016 8.49929 15.1267 8.49978 14.8341 8.79297L10.5356 13.1004L8.65643 11.2135C8.36414 10.92 7.88927 10.919 7.59577 11.2113C7.30227 11.5036 7.30129 11.9785 7.59357 12.272L10.0036 14.692C10.1442 14.8332 10.3353 14.9127 10.5346 14.9128C10.7339 14.9129 10.9251 14.8336 11.0659 14.6925L15.8959 9.85254Z" fill="#EE7700"/>
</svg>
