<svg width="24" height="24" viewBox="0 0 24 24" fill="none" xmlns="http://www.w3.org/2000/svg">
<path opacity="0.4" d="M15.5 9.75C16.3284 9.75 17 9.07843 17 8.25C17 7.42157 16.3284 6.75 15.5 6.75C14.6716 6.75 14 7.42157 14 8.25C14 9.07843 14.6716 9.75 15.5 9.75Z" fill="black" stroke="black" stroke-width="1.5" stroke-miterlimit="10" stroke-linecap="round" stroke-linejoin="round"/>
<path opacity="0.4" d="M8.5 9.75C9.32843 9.75 10 9.07843 10 8.25C10 7.42157 9.32843 6.75 8.5 6.75C7.67157 6.75 7 7.42157 7 8.25C7 9.07843 7.67157 9.75 8.5 9.75Z" fill="black" stroke="black" stroke-width="1.5" stroke-miterlimit="10" stroke-linecap="round" stroke-linejoin="round"/>
<path opacity="0.4" d="M16.5 14.2002C16.5 16.6902 14.49 18 12 18C9.51 18 7.5 16.6902 7.5 14.2002" stroke="black" stroke-width="1.5" stroke-miterlimit="10" stroke-linecap="round" stroke-linejoin="round"/>
<circle cx="12" cy="12" r="10.75" stroke="black" stroke-width="1.5"/>
</svg>
