<svg width="2515" height="1234" viewBox="0 0 2515 1234" fill="none" xmlns="http://www.w3.org/2000/svg">
<path d="M2441.79 240.44C2400.45 243.011 2340.87 274.449 2340.87 274.449C2340.87 274.449 2388.11 298.653 2421.01 304.933C2454.45 311.318 2474.36 309.649 2508.22 305.884C2544.4 301.862 2561.38 300.517 2598.76 283.667C2611.72 277.823 2643.35 269.773 2643.35 269.773C2622.85 264.796 2596.84 254.486 2566.52 246.482C2533.5 237.763 2483.13 237.868 2441.79 240.44Z" fill="#FCB951"/>
<path d="M2663.37 394.221C2653.92 356.316 2650.48 294.998 2650.48 294.998C2650.48 294.998 2702.19 339.109 2721.46 376.761C2734.43 402.095 2737.97 418.281 2743.79 446.153C2752.5 487.912 2748.96 555.298 2748.96 555.298C2748.96 555.298 2706.47 504.637 2688.48 466.842C2675.59 439.751 2670.64 423.341 2663.37 394.221Z" fill="#FCB951"/>
<path d="M2439.29 513.876C2467.7 504.327 2501.82 482.39 2501.82 482.39L2458.33 462.364C2421.47 453.604 2398.09 467.13 2362.74 479.444C2324.26 492.853 2275.61 536.961 2275.61 536.961C2275.61 536.961 2333.1 535.865 2369.05 530.367C2392 526.857 2415.09 522.008 2439.29 513.876Z" fill="#FCB951"/>
<path d="M2515.06 620.584C2498.56 570.825 2507.86 486.474 2507.86 486.474C2521.34 506.914 2534.82 516.435 2546.71 539.024C2563.25 570.455 2569.46 591.153 2571.16 626.659C2572.59 656.562 2565.74 689.388 2560.42 702.589C2560.42 702.589 2526.58 655.333 2515.06 620.584Z" fill="#FCB951"/>
<path d="M2379.26 675.007L2303.79 657.097C2303.79 657.097 2259.05 649.706 2231.76 662.828C2211.98 672.339 2180.37 699.865 2180.37 699.865C2180.37 699.865 2222.21 707.358 2249.08 705.533C2269.99 704.113 2281.69 700.55 2301.85 695.692C2332.46 688.317 2379.26 675.007 2379.26 675.007C2379.26 675.007 2374.75 737.275 2383 770.419C2388.62 793.004 2398.35 812.445 2405.92 825.414C2413.5 838.384 2433.79 857.709 2433.79 857.709C2433.79 857.709 2444.05 807.37 2437.98 776.026C2431.53 742.724 2400.25 697.833 2400.25 697.833L2379.26 675.007Z" fill="#FCB951"/>
<path d="M2153.27 869.386C2186.88 846.792 2257.16 870.728 2257.16 870.728C2257.16 870.728 2216.45 892.291 2183.41 905.572C2155.18 916.919 2108.51 926.939 2108.51 926.939C2108.51 926.939 2129.65 885.272 2153.27 869.386Z" fill="#FCB951"/>
<path d="M2279.38 967.48C2267.38 934.943 2266.11 879.643 2266.11 879.643L2266.35 874.864C2266.35 874.864 2308.07 920.16 2317.05 958.559C2323.73 987.094 2318 1033.63 2318 1033.63C2318 1033.63 2289.73 995.553 2279.38 967.48Z" fill="#FCB951"/>
<path d="M2193.87 1032.04C2196.61 995.478 2214.17 946.533 2219 941.553C2225.54 934.815 2233.16 934.712 2234.31 960.028C2235.46 985.343 2240.39 1018.01 2227.76 1051.55C2219.28 1074.04 2202.9 1091.68 2195.47 1103.96C2195.47 1103.96 2191.79 1059.75 2193.87 1032.04Z" fill="#FCB951"/>
<path fill-rule="evenodd" clip-rule="evenodd" d="M2193.32 1154.37L2218.44 1112.87C2220.43 1109.58 2222.83 1106.3 2225.87 1102.16C2228.1 1099.12 2230.66 1095.63 2233.65 1091.33C2240.02 1082.15 2247.08 1070.88 2251.98 1057.86C2263.95 1026.11 2261.8 994.586 2260.23 971.541C2259.95 967.435 2259.69 963.598 2259.53 960.076C2259.21 953.1 2258.43 947.032 2256.99 941.976C2255.65 937.26 2253.19 931.395 2248.01 927.25C2241.76 922.235 2234.35 921.882 2228.42 923.898C2223.38 925.61 2219.62 928.868 2217.2 931.358C2214.72 933.919 2212.98 937.272 2212.08 939.068C2210.88 941.467 2209.61 944.353 2208.33 947.516C2205.76 953.876 2202.88 962.044 2200.1 971.107C2194.6 989.075 2189.17 1011.7 2187.67 1031.62C2186.56 1046.48 2187 1065.25 2187.67 1079.87C2188 1087.27 2188.41 1093.78 2188.73 1098.45C2188.89 1100.79 2189.02 1102.66 2189.12 1103.97C2189.17 1104.62 2189.21 1105.12 2189.24 1105.47C2189.26 1105.64 2189.27 1105.78 2189.27 1105.87L2189.29 1106.02L2189.29 1106.02C2189.29 1106.02 2189.29 1106.02 2204.97 1104.72L2189.29 1106.02L2193.32 1154.37ZM2218.48 1055.88C2218.42 1048.08 2218.57 1040.48 2219.06 1033.98C2220.24 1018.24 2224.53 999.385 2229.36 983.097C2230.55 1003.68 2230.79 1024.83 2222.52 1046.77C2221.35 1049.88 2219.99 1052.91 2218.48 1055.88ZM2226.34 949.519C2226.34 949.521 2226.36 949.563 2226.4 949.639C2226.36 949.554 2226.34 949.517 2226.34 949.519ZM2126.38 937.289L2123.08 921.9L2109.04 914.778L2094.1 944.218L2126.38 937.289ZM2265.46 886.626C2262.15 888.304 2258.35 890.208 2254.21 892.248C2239.77 899.361 2220.92 908.275 2203.85 915.136C2188.74 921.209 2169.2 926.756 2153.88 930.711C2146.13 932.712 2139.28 934.351 2134.37 935.49C2131.91 936.06 2129.93 936.506 2128.56 936.811C2127.87 936.964 2127.33 937.081 2126.97 937.162C2126.78 937.202 2126.64 937.233 2126.54 937.254L2126.38 937.288C2126.38 937.288 2126.38 937.289 2123.08 921.9C2109.04 914.778 2109.04 914.776 2109.04 914.774L2109.05 914.768L2109.07 914.715L2109.14 914.592C2109.19 914.49 2109.26 914.348 2109.35 914.17C2109.54 913.814 2109.8 913.309 2110.14 912.671C2110.82 911.398 2111.81 909.592 2113.05 907.389C2115.54 902.995 2116.56 898.2 2123.23 892.518C2134.8 882.671 2146.68 869.857 2161.23 860.073C2172.7 852.362 2186.36 849.179 2199.12 848.126C2212.03 847.062 2225.23 848.075 2236.81 849.756C2248.46 851.447 2258.91 853.88 2266.43 855.878C2267.13 856.062 2267.79 856.243 2268.44 856.42L2283.47 863.24L2300.41 868.311C2304.56 873.315 2309.99 880.144 2315.7 888.106C2327.48 904.555 2341.72 927.573 2346.95 949.934C2350.8 966.383 2350.93 986.934 2350.33 1002.37C2350.02 1010.29 2349.49 1017.27 2349.04 1022.28C2348.82 1024.79 2348.61 1026.81 2348.46 1028.22C2348.38 1028.93 2348.32 1029.48 2348.27 1029.87C2348.25 1030.06 2348.23 1030.21 2348.22 1030.32L2348.2 1030.5C2348.2 1030.51 2348.2 1030.51 2332.57 1028.59L2348.2 1030.51L2343.39 1069.56L2319.94 1037.97L2332.57 1028.59C2319.94 1037.97 2319.94 1037.97 2319.94 1037.97L2319.93 1037.96L2319.9 1037.92L2319.83 1037.82C2319.77 1037.74 2319.68 1037.62 2319.56 1037.46C2319.34 1037.15 2319.01 1036.7 2318.59 1036.13C2317.76 1034.97 2316.57 1033.31 2315.11 1031.24C2312.21 1027.1 2308.22 1021.28 2303.9 1014.54C2295.43 1001.35 2284.98 983.615 2279.18 967.886C2272.46 949.652 2269 926.029 2267.16 907.913C2266.32 899.683 2265.79 892.296 2265.46 886.626ZM2224.91 871.437C2214.23 876.484 2202.72 881.667 2192.11 885.929C2182.13 889.943 2169.37 893.876 2157.2 897.243C2163.46 889.035 2170.22 881.718 2176.63 877.409C2181.96 873.823 2189.69 871.524 2199.55 870.711C2207.63 870.044 2216.35 870.438 2224.91 871.437ZM2300.66 922.317C2302.53 934.84 2305.14 947.296 2308.72 956.995C2311.14 963.551 2314.77 970.952 2318.88 978.377C2318.53 970.628 2317.73 963.237 2316.3 957.105C2313.74 946.191 2307.78 933.982 2300.66 922.317ZM2159.59 716.07L2191.93 721.861L2194.7 706.368L2184.37 694.497L2159.59 716.07ZM2376.87 702.524C2374.85 703.082 2372.73 703.666 2370.53 704.268C2354.97 708.525 2335.42 713.75 2319.87 717.496C2316.93 718.205 2314.13 718.898 2311.42 719.568C2296.09 723.361 2283.65 726.437 2264.48 727.739C2249.51 728.756 2231.12 727.181 2217.12 725.515C2209.99 724.666 2203.73 723.759 2199.25 723.063C2197 722.715 2195.2 722.419 2193.94 722.207C2193.31 722.102 2192.82 722.017 2192.48 721.958C2192.31 721.929 2192.18 721.905 2192.09 721.889L2191.98 721.869L2191.94 721.862L2191.93 721.861C2191.93 721.861 2191.93 721.861 2194.7 706.368C2184.37 694.497 2184.37 694.496 2184.37 694.496L2184.4 694.466L2184.49 694.395C2184.56 694.335 2184.66 694.249 2184.78 694.139C2185.04 693.919 2185.41 693.601 2185.88 693.198C2186.82 692.391 2188.18 691.239 2189.87 689.83C2193.25 687.018 2197.96 683.163 2203.32 678.992C2213.7 670.921 2227.72 660.705 2239.28 655.146C2256.34 646.944 2277.4 645.592 2292.57 645.807C2300.45 645.92 2307.39 646.473 2312.36 646.998C2314.86 647.262 2316.88 647.52 2318.3 647.717C2319.02 647.816 2319.58 647.899 2319.99 647.961C2320.19 647.991 2320.35 648.016 2320.47 648.035L2320.61 648.058L2320.68 648.07C2320.69 648.071 2320.69 648.071 2318.13 663.6L2320.69 648.071L2321.23 648.16C2321.23 648.16 2366.88 656.249 2392.72 675.78C2404.21 684.468 2426.89 694.466 2426.89 694.466L2427.5 695.338L2414.59 704.337C2427.5 695.338 2427.5 695.34 2427.5 695.342L2427.63 695.52C2427.7 695.623 2427.8 695.77 2427.93 695.957C2428.18 696.331 2428.55 696.869 2429.01 697.556C2429.93 698.93 2431.24 700.906 2432.83 703.373C2435.98 708.297 2440.26 715.221 2444.76 723.247C2453.52 738.869 2464.04 760.264 2467.77 779.537C2471.28 797.67 2469.98 820.079 2468.14 836.838C2467.2 845.446 2466.06 853.017 2465.16 858.442C2464.71 861.159 2464.31 863.351 2464.03 864.88C2463.88 865.645 2463.77 866.245 2463.69 866.663C2463.64 866.872 2463.61 867.036 2463.59 867.152L2463.55 867.332L2463.55 867.346L2463.55 867.352C2463.55 867.354 2463.55 867.356 2448.13 864.212L2463.55 867.356L2457.87 895.221L2437.27 875.609L2448.13 864.212C2437.27 875.609 2437.27 875.608 2437.27 875.608L2437.19 875.528C2437.14 875.482 2437.07 875.418 2436.99 875.336C2436.82 875.173 2436.58 874.939 2436.27 874.642C2435.66 874.047 2434.79 873.195 2433.73 872.137C2431.61 870.025 2428.7 867.064 2425.53 863.665C2419.49 857.193 2411.43 848.001 2406.67 839.854C2398.66 826.137 2388.17 805.266 2382.06 780.725C2377.42 762.07 2376.54 736.475 2376.63 716.709C2376.66 711.651 2376.75 706.862 2376.87 702.524ZM2329.82 682.551C2323.76 684.117 2317.87 685.6 2312.5 686.894C2309.28 687.669 2306.31 688.4 2303.53 689.087C2288.4 692.818 2278.62 695.228 2262.35 696.333C2254.05 696.897 2243.76 696.454 2233.67 695.583C2240.68 690.553 2247.54 686.102 2252.92 683.515C2263.15 678.596 2278.1 677.083 2292.12 677.282C2298.83 677.378 2304.79 677.852 2309.06 678.302C2311.18 678.527 2312.87 678.743 2313.99 678.899C2314.46 678.963 2314.83 679.017 2315.09 679.057L2329.82 682.551ZM2408.12 723.189C2410.76 727.398 2413.98 732.7 2417.31 738.642C2425.8 753.791 2434.15 771.492 2436.87 785.521C2439.2 797.563 2438.75 813.942 2437.3 829.05C2435.91 827.206 2434.73 825.489 2433.85 823.981C2426.72 811.759 2417.75 793.749 2412.61 773.12C2409.38 760.167 2408.25 741.123 2408.12 723.189ZM2243.44 554.26L2285.41 553.46L2285.11 537.723L2274.54 526.064L2243.44 554.26ZM2499.95 508.185C2499.41 508.484 2498.87 508.785 2498.32 509.089C2485.98 515.912 2469.36 524.326 2453.8 529.557C2428.5 538.059 2404.48 543.086 2380.93 546.688C2362.13 549.563 2338.11 551.241 2319.15 552.207C2309.59 552.694 2301.18 553.006 2295.15 553.197C2292.14 553.293 2289.72 553.358 2288.04 553.4C2287.2 553.421 2286.55 553.435 2286.11 553.445L2285.42 553.46L2285.41 553.46C2285.41 553.46 2285.41 553.46 2285.11 537.723C2274.54 526.064 2274.54 526.063 2274.54 526.061L2274.6 526.012L2274.72 525.896C2274.83 525.798 2274.99 525.66 2275.19 525.482C2275.59 525.127 2276.16 524.616 2276.9 523.968C2278.38 522.673 2280.51 520.828 2283.18 518.581C2288.51 514.092 2296.03 507.964 2304.81 501.393C2321.99 488.533 2345.4 472.892 2367.06 465.343C2372.44 463.469 2377.73 461.462 2383 459.462C2409.69 449.325 2435.92 439.366 2471.47 447.814C2482.55 450.447 2494.86 456.225 2503.65 460.793C2507.57 462.827 2511.03 464.751 2513.71 466.287L2515.28 478.936L2521.27 483.032L2520.83 488.474C2520.83 488.474 2527.66 487.123 2532.24 489.392C2536.82 491.661 2542.57 494.499 2546.18 498.752C2547.24 499.993 2548.31 501.257 2549.41 502.561C2556.23 510.646 2563.41 519.682 2570.13 532.456C2587.65 565.733 2594.56 588.662 2596.38 626.669C2597.91 658.678 2590.75 693.785 2584.51 709.238L2573.8 735.806L2557.12 712.515L2569.92 703.352C2557.12 712.515 2557.12 712.512 2557.12 712.512L2557.12 712.509L2557.11 712.497L2557.08 712.462L2557 712.34C2556.92 712.237 2556.82 712.089 2556.68 711.898C2556.41 711.516 2556.02 710.963 2555.53 710.252C2554.54 708.832 2553.12 706.783 2551.4 704.223C2547.95 699.108 2543.23 691.919 2538.14 683.603C2528.13 667.266 2515.98 645.483 2509.62 626.299C2500.5 598.802 2493.79 563.323 2494.06 535.741C2494.16 525.551 2499.51 515.951 2499.95 508.185ZM2478.96 483.789C2467.97 489.697 2455.16 495.89 2443.77 499.719C2420.68 507.481 2398.52 512.153 2376.17 515.571C2363.51 517.508 2347.82 518.897 2332.92 519.876C2347.52 509.603 2363.6 499.885 2377.42 495.069C2384.34 492.66 2390.58 490.332 2396.34 488.18C2422.3 478.496 2438.69 472.38 2464.19 478.439C2468.51 479.465 2473.68 481.428 2478.96 483.789ZM2530.61 529.286C2534.77 534.586 2538.61 540.146 2542.28 547.116C2557.85 576.701 2563.36 595.169 2564.94 628.173C2565.51 640.203 2564.62 652.747 2563.06 663.995C2553.84 648.689 2544.32 630.944 2539.49 616.393C2532.11 594.131 2530.25 562.817 2530.51 535.783C2530.53 533.573 2530.56 531.404 2530.61 529.286ZM2344.42 289.465L2351.6 275.457L2344.26 261.537L2317.49 275.662L2344.42 289.465ZM2639.62 291.063C2630.4 293.744 2621.01 296.749 2615.96 299.024C2577.82 316.219 2558.78 318.325 2524.94 322.065C2523.55 322.219 2522.14 322.375 2520.7 322.535C2486.38 326.351 2464.59 328.236 2428.79 321.402C2410.57 317.924 2389.23 309.722 2373.13 302.807C2364.92 299.285 2357.79 295.97 2352.7 293.532C2350.15 292.312 2348.11 291.308 2346.69 290.603C2345.98 290.25 2345.43 289.972 2345.04 289.779C2344.85 289.683 2344.7 289.607 2344.6 289.554L2344.43 289.468L2344.43 289.466C2344.43 289.466 2344.42 289.465 2351.6 275.457C2344.26 261.537 2344.26 261.536 2344.26 261.535L2344.27 261.532L2344.33 261.499L2344.49 261.417C2344.57 261.373 2344.67 261.318 2344.8 261.252L2345.05 261.123C2345.54 260.871 2346.24 260.511 2347.14 260.056C2348.94 259.146 2351.53 257.859 2354.75 256.312C2361.2 253.224 2370.23 249.079 2380.62 244.843C2400.92 236.563 2428.16 227.194 2451.55 225.739C2492.94 223.165 2545.57 222.845 2581.28 232.273C2596.93 236.405 2611.41 241.118 2624.24 245.31L2624.78 245.487C2637.6 249.676 2648.4 253.206 2657.8 255.486L2657.89 271.662L2665.55 278.195L2655.33 290.17C2665.55 278.195 2665.55 278.197 2665.55 278.198L2665.55 278.202L2665.57 278.213L2665.61 278.247L2665.74 278.362C2665.85 278.46 2666.02 278.6 2666.22 278.78C2666.64 279.14 2667.24 279.662 2668 280.332C2669.52 281.673 2671.69 283.613 2674.35 286.052C2679.66 290.924 2686.95 297.822 2694.87 305.946C2710.39 321.865 2729.55 343.712 2740.33 364.762C2754.3 392.064 2758.18 409.976 2764.05 438.11C2768.74 460.584 2770.03 489.163 2770.23 511.411C2770.34 522.683 2770.16 532.613 2769.97 539.73C2769.87 543.292 2769.76 546.158 2769.68 548.145C2769.63 549.139 2769.6 549.913 2769.57 550.446C2769.56 550.712 2769.55 550.918 2769.54 551.06L2769.53 551.273L2769.53 551.288L2769.53 551.292C2769.53 551.292 2769.53 551.296 2753.82 550.47L2769.53 551.296L2767.44 591.201L2741.76 560.585L2753.82 550.47C2741.76 560.585 2741.75 560.583 2741.75 560.583L2741.75 560.579L2741.74 560.568L2741.61 560.408C2741.52 560.301 2741.39 560.145 2741.22 559.944C2740.89 559.542 2740.4 558.956 2739.79 558.203C2738.55 556.696 2736.78 554.515 2734.6 551.786C2730.24 546.333 2724.24 538.663 2717.67 529.779C2704.69 512.245 2688.8 489.12 2679.12 468.777C2665.63 440.417 2660.37 422.923 2652.96 393.201C2647.94 373.101 2644.63 347.363 2642.58 327.16C2641.54 316.953 2640.8 307.956 2640.32 301.507C2640.08 298.281 2639.91 295.686 2639.79 293.889C2639.73 292.99 2639.69 292.291 2639.66 291.811C2639.65 291.571 2639.64 291.386 2639.63 291.259L2639.62 291.063ZM2639.66 291.052C2639.91 291.037 2641.75 290.933 2655.33 290.17L2639.67 291.049C2639.66 291.05 2639.66 291.051 2639.66 291.052ZM2601.47 271.026C2568.94 285.53 2553.77 287.207 2521.53 290.773C2520.12 290.928 2518.69 291.087 2517.22 291.25C2483.81 294.964 2465.79 296.418 2434.69 290.482C2421.1 287.888 2404.05 281.664 2389.11 275.394C2390.22 274.928 2391.35 274.46 2392.5 273.991C2412.32 265.909 2435.55 258.274 2453.5 257.157C2494.79 254.588 2542.9 254.697 2573.24 262.708C2583.07 265.304 2592.47 268.158 2601.47 271.026ZM2738.66 505.167C2738.27 484.793 2736.86 461.937 2733.23 444.54C2727.47 416.929 2724.27 402.47 2712.31 379.103C2704.22 363.311 2689.06 345.317 2674.55 330.216C2676.58 348.736 2679.51 369.604 2683.5 385.584C2690.61 414.104 2695.26 429.429 2707.55 455.252C2714.93 470.764 2727.09 489.159 2738.66 505.167Z" fill="#FCB951"/>
<path d="M2218.48 1055.88C2218.42 1048.08 2218.57 1040.48 2219.06 1033.98C2220.24 1018.24 2224.53 999.385 2229.36 983.097C2230.55 1003.68 2230.79 1024.83 2222.52 1046.77C2221.35 1049.88 2219.99 1052.91 2218.48 1055.88Z" fill="#FCB951"/>
<path d="M2226.34 949.519C2226.34 949.521 2226.36 949.563 2226.4 949.639C2226.36 949.554 2226.34 949.517 2226.34 949.519Z" fill="#FCB951"/>
<path fill-rule="evenodd" clip-rule="evenodd" d="M2193.32 1154.37L2218.44 1112.87C2220.43 1109.58 2222.83 1106.3 2225.87 1102.16C2228.1 1099.12 2230.66 1095.63 2233.65 1091.33C2240.02 1082.15 2247.08 1070.88 2251.98 1057.86C2263.95 1026.11 2261.8 994.586 2260.23 971.541C2259.95 967.435 2259.69 963.598 2259.53 960.076C2259.21 953.1 2258.43 947.032 2256.99 941.976C2255.65 937.26 2253.19 931.395 2248.01 927.25C2241.76 922.235 2234.35 921.882 2228.42 923.898C2223.38 925.61 2219.62 928.868 2217.2 931.358C2214.72 933.919 2212.98 937.272 2212.08 939.068C2210.88 941.467 2209.61 944.353 2208.33 947.516C2205.76 953.876 2202.88 962.044 2200.1 971.107C2194.6 989.075 2189.17 1011.7 2187.67 1031.62C2186.56 1046.48 2187 1065.25 2187.67 1079.87C2188 1087.27 2188.41 1093.78 2188.73 1098.45C2188.89 1100.79 2189.02 1102.66 2189.12 1103.97C2189.17 1104.62 2189.21 1105.12 2189.24 1105.47C2189.26 1105.64 2189.27 1105.78 2189.27 1105.87L2189.29 1106.02L2189.29 1106.02C2189.29 1106.02 2189.29 1106.02 2204.97 1104.72L2189.29 1106.02L2193.32 1154.37ZM2218.48 1055.88C2218.42 1048.08 2218.57 1040.48 2219.06 1033.98C2220.24 1018.24 2224.53 999.385 2229.36 983.097C2230.55 1003.68 2230.79 1024.83 2222.52 1046.77C2221.35 1049.88 2219.99 1052.91 2218.48 1055.88ZM2226.34 949.519C2226.34 949.521 2226.36 949.563 2226.4 949.639C2226.36 949.554 2226.34 949.517 2226.34 949.519ZM2126.38 937.289L2123.08 921.9L2109.04 914.778L2094.1 944.218L2126.38 937.289ZM2265.46 886.626C2262.15 888.304 2258.35 890.208 2254.21 892.248C2239.77 899.361 2220.92 908.275 2203.85 915.136C2188.74 921.209 2169.2 926.756 2153.88 930.711C2146.13 932.712 2139.28 934.351 2134.37 935.49C2131.91 936.06 2129.93 936.506 2128.56 936.811C2127.87 936.964 2127.33 937.081 2126.97 937.162C2126.78 937.202 2126.64 937.233 2126.54 937.254L2126.38 937.288C2126.38 937.288 2126.38 937.289 2123.08 921.9C2109.04 914.778 2109.04 914.776 2109.04 914.774L2109.05 914.768L2109.07 914.715L2109.14 914.592C2109.19 914.49 2109.26 914.348 2109.35 914.17C2109.54 913.814 2109.8 913.309 2110.14 912.671C2110.82 911.398 2111.81 909.592 2113.05 907.389C2115.54 902.995 2116.56 898.2 2123.23 892.518C2134.8 882.671 2146.68 869.857 2161.23 860.073C2172.7 852.362 2186.36 849.179 2199.12 848.126C2212.03 847.062 2225.23 848.075 2236.81 849.756C2248.46 851.447 2258.91 853.88 2266.43 855.878C2267.13 856.062 2267.79 856.243 2268.44 856.42L2283.47 863.24L2300.41 868.311C2304.56 873.315 2309.99 880.144 2315.7 888.106C2327.48 904.555 2341.72 927.573 2346.95 949.934C2350.8 966.383 2350.93 986.934 2350.33 1002.37C2350.02 1010.29 2349.49 1017.27 2349.04 1022.28C2348.82 1024.79 2348.61 1026.81 2348.46 1028.22C2348.38 1028.93 2348.32 1029.48 2348.27 1029.87C2348.25 1030.06 2348.23 1030.21 2348.22 1030.32L2348.2 1030.5C2348.2 1030.51 2348.2 1030.51 2332.57 1028.59L2348.2 1030.51L2343.39 1069.56L2319.94 1037.97L2332.57 1028.59C2319.94 1037.97 2319.94 1037.97 2319.94 1037.97L2319.93 1037.96L2319.9 1037.92L2319.83 1037.82C2319.77 1037.74 2319.68 1037.62 2319.56 1037.46C2319.34 1037.15 2319.01 1036.7 2318.59 1036.13C2317.76 1034.97 2316.57 1033.31 2315.11 1031.24C2312.21 1027.1 2308.22 1021.28 2303.9 1014.54C2295.43 1001.35 2284.98 983.615 2279.18 967.886C2272.46 949.652 2269 926.029 2267.16 907.913C2266.32 899.683 2265.79 892.296 2265.46 886.626ZM2224.91 871.437C2214.23 876.484 2202.72 881.667 2192.11 885.929C2182.13 889.943 2169.37 893.876 2157.2 897.243C2163.46 889.035 2170.22 881.718 2176.63 877.409C2181.96 873.823 2189.69 871.524 2199.55 870.711C2207.63 870.044 2216.35 870.438 2224.91 871.437ZM2300.66 922.317C2302.53 934.84 2305.14 947.296 2308.72 956.995C2311.14 963.551 2314.77 970.952 2318.88 978.377C2318.53 970.628 2317.73 963.237 2316.3 957.105C2313.74 946.191 2307.78 933.982 2300.66 922.317ZM2159.59 716.07L2191.93 721.861L2194.7 706.368L2184.37 694.497L2159.59 716.07ZM2376.87 702.524C2374.85 703.082 2372.73 703.666 2370.53 704.268C2354.97 708.525 2335.42 713.75 2319.87 717.496C2316.93 718.205 2314.13 718.898 2311.42 719.568C2296.09 723.361 2283.65 726.437 2264.48 727.739C2249.51 728.756 2231.12 727.181 2217.12 725.515C2209.99 724.666 2203.73 723.759 2199.25 723.063C2197 722.715 2195.2 722.419 2193.94 722.207C2193.31 722.102 2192.82 722.017 2192.48 721.958C2192.31 721.929 2192.18 721.905 2192.09 721.889L2191.98 721.869L2191.94 721.862L2191.93 721.861C2191.93 721.861 2191.93 721.861 2194.7 706.368C2184.37 694.497 2184.37 694.496 2184.37 694.496L2184.4 694.466L2184.49 694.395C2184.56 694.335 2184.66 694.249 2184.78 694.139C2185.04 693.919 2185.41 693.601 2185.88 693.198C2186.82 692.391 2188.18 691.239 2189.87 689.83C2193.25 687.018 2197.96 683.163 2203.32 678.992C2213.7 670.921 2227.72 660.705 2239.28 655.146C2256.34 646.944 2277.4 645.592 2292.57 645.807C2300.45 645.92 2307.39 646.473 2312.36 646.998C2314.86 647.262 2316.88 647.52 2318.3 647.717C2319.02 647.816 2319.58 647.899 2319.99 647.961C2320.19 647.991 2320.35 648.016 2320.47 648.035L2320.61 648.058L2320.68 648.07C2320.69 648.071 2320.69 648.071 2318.13 663.6L2320.69 648.071L2321.23 648.16C2321.23 648.16 2366.88 656.249 2392.72 675.78C2404.21 684.468 2426.89 694.466 2426.89 694.466L2427.5 695.338L2414.59 704.337C2427.5 695.338 2427.5 695.34 2427.5 695.342L2427.63 695.52C2427.7 695.623 2427.8 695.77 2427.93 695.957C2428.18 696.331 2428.55 696.869 2429.01 697.556C2429.93 698.93 2431.24 700.906 2432.83 703.373C2435.98 708.297 2440.26 715.221 2444.76 723.247C2453.52 738.869 2464.04 760.264 2467.77 779.537C2471.28 797.67 2469.98 820.079 2468.14 836.838C2467.2 845.446 2466.06 853.017 2465.16 858.442C2464.71 861.159 2464.31 863.351 2464.03 864.88C2463.88 865.645 2463.77 866.245 2463.69 866.663C2463.64 866.872 2463.61 867.036 2463.59 867.152L2463.55 867.332L2463.55 867.346L2463.55 867.352C2463.55 867.354 2463.55 867.356 2448.13 864.212L2463.55 867.356L2457.87 895.221L2437.27 875.609L2448.13 864.212C2437.27 875.609 2437.27 875.608 2437.27 875.608L2437.19 875.528C2437.14 875.482 2437.07 875.418 2436.99 875.336C2436.82 875.173 2436.58 874.939 2436.27 874.642C2435.66 874.047 2434.79 873.195 2433.73 872.137C2431.61 870.025 2428.7 867.064 2425.53 863.665C2419.49 857.193 2411.43 848.001 2406.67 839.854C2398.66 826.137 2388.17 805.266 2382.06 780.725C2377.42 762.07 2376.54 736.475 2376.63 716.709C2376.66 711.651 2376.75 706.862 2376.87 702.524ZM2329.82 682.551C2323.76 684.117 2317.87 685.6 2312.5 686.894C2309.28 687.669 2306.31 688.4 2303.53 689.087C2288.4 692.818 2278.62 695.228 2262.35 696.333C2254.05 696.897 2243.76 696.454 2233.67 695.583C2240.68 690.553 2247.54 686.102 2252.92 683.515C2263.15 678.596 2278.1 677.083 2292.12 677.282C2298.83 677.378 2304.79 677.852 2309.06 678.302C2311.18 678.527 2312.87 678.743 2313.99 678.899C2314.46 678.963 2314.83 679.017 2315.09 679.057L2329.82 682.551ZM2408.12 723.189C2410.76 727.398 2413.98 732.7 2417.31 738.642C2425.8 753.791 2434.15 771.492 2436.87 785.521C2439.2 797.563 2438.75 813.942 2437.3 829.05C2435.91 827.206 2434.73 825.489 2433.85 823.981C2426.72 811.759 2417.75 793.749 2412.61 773.12C2409.38 760.167 2408.25 741.123 2408.12 723.189ZM2243.44 554.26L2285.41 553.46L2285.11 537.723L2274.54 526.064L2243.44 554.26ZM2499.95 508.185C2499.41 508.484 2498.87 508.785 2498.32 509.089C2485.98 515.912 2469.36 524.326 2453.8 529.557C2428.5 538.059 2404.48 543.086 2380.93 546.688C2362.13 549.563 2338.11 551.241 2319.15 552.207C2309.59 552.694 2301.18 553.006 2295.15 553.197C2292.14 553.293 2289.72 553.358 2288.04 553.4C2287.2 553.421 2286.55 553.435 2286.11 553.445L2285.42 553.46L2285.41 553.46C2285.41 553.46 2285.41 553.46 2285.11 537.723C2274.54 526.064 2274.54 526.063 2274.54 526.061L2274.6 526.012L2274.72 525.896C2274.83 525.798 2274.99 525.66 2275.19 525.482C2275.59 525.127 2276.16 524.616 2276.9 523.968C2278.38 522.673 2280.51 520.828 2283.18 518.581C2288.51 514.092 2296.03 507.964 2304.81 501.393C2321.99 488.533 2345.4 472.892 2367.06 465.343C2372.44 463.469 2377.73 461.462 2383 459.462C2409.69 449.325 2435.92 439.366 2471.47 447.814C2482.55 450.447 2494.86 456.225 2503.65 460.793C2507.57 462.827 2511.03 464.751 2513.71 466.287L2515.28 478.936L2521.27 483.032L2520.83 488.474C2520.83 488.474 2527.66 487.123 2532.24 489.392C2536.82 491.661 2542.57 494.499 2546.18 498.752C2547.24 499.993 2548.31 501.257 2549.41 502.561C2556.23 510.646 2563.41 519.682 2570.13 532.456C2587.65 565.733 2594.56 588.662 2596.38 626.669C2597.91 658.678 2590.75 693.785 2584.51 709.238L2573.8 735.806L2557.12 712.515L2569.92 703.352C2557.12 712.515 2557.12 712.512 2557.12 712.512L2557.12 712.509L2557.11 712.497L2557.08 712.462L2557 712.34C2556.92 712.237 2556.82 712.089 2556.68 711.898C2556.41 711.516 2556.02 710.963 2555.53 710.252C2554.54 708.832 2553.12 706.783 2551.4 704.223C2547.95 699.108 2543.23 691.919 2538.14 683.603C2528.13 667.266 2515.98 645.483 2509.62 626.299C2500.5 598.802 2493.79 563.323 2494.06 535.741C2494.16 525.551 2499.51 515.951 2499.95 508.185ZM2478.96 483.789C2467.97 489.697 2455.16 495.89 2443.77 499.719C2420.68 507.481 2398.52 512.153 2376.17 515.571C2363.51 517.508 2347.82 518.897 2332.92 519.876C2347.52 509.603 2363.6 499.885 2377.42 495.069C2384.34 492.66 2390.58 490.332 2396.34 488.18C2422.3 478.496 2438.69 472.38 2464.19 478.439C2468.51 479.465 2473.68 481.428 2478.96 483.789ZM2530.61 529.286C2534.77 534.586 2538.61 540.146 2542.28 547.116C2557.85 576.701 2563.36 595.169 2564.94 628.173C2565.51 640.203 2564.62 652.747 2563.06 663.995C2553.84 648.689 2544.32 630.944 2539.49 616.393C2532.11 594.131 2530.25 562.817 2530.51 535.783C2530.53 533.573 2530.56 531.404 2530.61 529.286ZM2344.42 289.465L2351.6 275.457L2344.26 261.537L2317.49 275.662L2344.42 289.465ZM2639.62 291.063C2630.4 293.744 2621.01 296.749 2615.96 299.024C2577.82 316.219 2558.78 318.325 2524.94 322.065C2523.55 322.219 2522.14 322.375 2520.7 322.535C2486.38 326.351 2464.59 328.236 2428.79 321.402C2410.57 317.924 2389.23 309.722 2373.13 302.807C2364.92 299.285 2357.79 295.97 2352.7 293.532C2350.15 292.312 2348.11 291.308 2346.69 290.603C2345.98 290.25 2345.43 289.972 2345.04 289.779C2344.85 289.683 2344.7 289.607 2344.6 289.554L2344.43 289.468L2344.43 289.466C2344.43 289.466 2344.42 289.465 2351.6 275.457C2344.26 261.537 2344.26 261.536 2344.26 261.535L2344.27 261.532L2344.33 261.499L2344.49 261.417C2344.57 261.373 2344.67 261.318 2344.8 261.252L2345.05 261.123C2345.54 260.871 2346.24 260.511 2347.14 260.056C2348.94 259.146 2351.53 257.859 2354.75 256.312C2361.2 253.224 2370.23 249.079 2380.62 244.843C2400.92 236.563 2428.16 227.194 2451.55 225.739C2492.94 223.165 2545.57 222.845 2581.28 232.273C2596.93 236.405 2611.41 241.118 2624.24 245.31L2624.78 245.487C2637.6 249.676 2648.4 253.206 2657.8 255.486L2657.89 271.662L2665.55 278.195L2655.33 290.17C2665.55 278.195 2665.55 278.197 2665.55 278.198L2665.55 278.202L2665.57 278.213L2665.61 278.247L2665.74 278.362C2665.85 278.46 2666.02 278.6 2666.22 278.78C2666.64 279.14 2667.24 279.662 2668 280.332C2669.52 281.673 2671.69 283.613 2674.35 286.052C2679.66 290.924 2686.95 297.822 2694.87 305.946C2710.39 321.865 2729.55 343.712 2740.33 364.762C2754.3 392.064 2758.18 409.976 2764.05 438.11C2768.74 460.584 2770.03 489.163 2770.23 511.411C2770.34 522.683 2770.16 532.613 2769.97 539.73C2769.87 543.292 2769.76 546.158 2769.68 548.145C2769.63 549.139 2769.6 549.913 2769.57 550.446C2769.56 550.712 2769.55 550.918 2769.54 551.06L2769.53 551.273L2769.53 551.288L2769.53 551.292C2769.53 551.292 2769.53 551.296 2753.82 550.47L2769.53 551.296L2767.44 591.201L2741.76 560.585L2753.82 550.47C2741.76 560.585 2741.75 560.583 2741.75 560.583L2741.75 560.579L2741.74 560.568L2741.61 560.408C2741.52 560.301 2741.39 560.145 2741.22 559.944C2740.89 559.542 2740.4 558.956 2739.79 558.203C2738.55 556.696 2736.78 554.515 2734.6 551.786C2730.24 546.333 2724.24 538.663 2717.67 529.779C2704.69 512.245 2688.8 489.12 2679.12 468.777C2665.63 440.417 2660.37 422.923 2652.96 393.201C2647.94 373.101 2644.63 347.363 2642.58 327.16C2641.54 316.953 2640.8 307.956 2640.32 301.507C2640.08 298.281 2639.91 295.686 2639.79 293.889C2639.73 292.99 2639.69 292.291 2639.66 291.811C2639.65 291.571 2639.64 291.386 2639.63 291.259L2639.62 291.063ZM2639.66 291.052C2639.91 291.037 2641.75 290.933 2655.33 290.17L2639.67 291.049C2639.66 291.05 2639.66 291.051 2639.66 291.052ZM2601.47 271.026C2568.94 285.53 2553.77 287.207 2521.53 290.773C2520.12 290.928 2518.69 291.087 2517.22 291.25C2483.81 294.964 2465.79 296.418 2434.69 290.482C2421.1 287.888 2404.05 281.664 2389.11 275.394C2390.22 274.928 2391.35 274.46 2392.5 273.991C2412.32 265.909 2435.55 258.274 2453.5 257.157C2494.79 254.588 2542.9 254.697 2573.24 262.708C2583.07 265.304 2592.47 268.158 2601.47 271.026ZM2738.66 505.167C2738.27 484.793 2736.86 461.937 2733.23 444.54C2727.47 416.929 2724.27 402.47 2712.31 379.103C2704.22 363.311 2689.06 345.317 2674.55 330.216C2676.58 348.736 2679.51 369.604 2683.5 385.584C2690.61 414.104 2695.26 429.429 2707.55 455.252C2714.93 470.764 2727.09 489.159 2738.66 505.167Z" fill="#FCB951"/>
<path d="M2218.48 1055.88C2218.42 1048.08 2218.57 1040.48 2219.06 1033.98C2220.24 1018.24 2224.53 999.385 2229.36 983.097C2230.55 1003.68 2230.79 1024.83 2222.52 1046.77C2221.35 1049.88 2219.99 1052.91 2218.48 1055.88Z" fill="#FCB951"/>
<path d="M2226.34 949.519C2226.34 949.521 2226.36 949.563 2226.4 949.639C2226.36 949.554 2226.34 949.517 2226.34 949.519Z" fill="#FCB951"/>
<path d="M2826.63 -29.3884L2746.15 126.342L2761.78 184.216L2666.85 261.592L2560.98 417.672L2473.12 552.233L2362.65 717.991L2290.71 839L2244.89 926.704" stroke="#FCB951" stroke-width="8.45084"/>
<path d="M2331.61 1014.53L2303.19 909.846L2276.97 867.064M2271.42 864.704C2242.9 868.31 2181.42 889.042 2167.69 893.2C2167.69 893.2 2117.16 926.456 2105.94 935.123M2447.04 852.519C2441.73 823.316 2426.34 758.984 2426.34 758.984L2389.25 684.706M2383.38 680.405C2357.71 678.34 2284.53 679.15 2279.21 678.722C2273.88 678.293 2208.55 700.47 2187.11 705.284M2578.14 697.991C2567.77 656.485 2546.75 571.921 2545.72 565.713C2544.69 559.506 2525.01 513.965 2515.29 491.971M2510.45 486.796L2409.29 489.183L2300.48 527.319M2601.16 269.208L2493.26 266.267L2396.16 271.851M2246 924.862L2227.66 980.326L2223.23 1035.47L2205.66 1099.13" stroke="#FCB951" stroke-width="2.53525"/>
<path d="M72.0602 240.44C113.4 243.011 172.981 274.449 172.981 274.449C172.981 274.449 125.739 298.653 92.841 304.933C59.3927 311.318 39.485 309.649 5.62279 305.884C-30.5502 301.862 -47.5352 300.517 -84.9121 283.667C-97.875 277.823 -129.5 269.773 -129.5 269.773C-108.998 264.796 -82.9891 254.486 -52.6763 246.482C-19.6539 237.763 30.7201 237.868 72.0602 240.44Z" fill="#FCB951"/>
<path d="M-149.525 394.221C-140.071 356.316 -136.63 294.998 -136.63 294.998C-136.63 294.998 -188.345 339.109 -207.615 376.761C-220.581 402.095 -224.121 418.281 -229.938 446.153C-238.652 487.912 -235.114 555.298 -235.114 555.298C-235.114 555.298 -192.619 504.637 -174.634 466.842C-161.743 439.751 -156.788 423.341 -149.525 394.221Z" fill="#FCB951"/>
<path d="M74.5603 513.876C46.1508 504.327 12.0267 482.39 12.0267 482.39L55.5149 462.364C92.3816 453.604 115.759 467.13 151.104 479.444C189.592 492.853 238.234 536.961 238.234 536.961C238.234 536.961 180.748 535.865 144.8 530.367C121.846 526.857 98.7546 522.008 74.5603 513.876Z" fill="#FCB951"/>
<path d="M-1.2086 620.584C15.288 570.825 5.98813 486.474 5.98813 486.474C-7.49538 506.914 -20.9718 516.435 -32.8598 539.024C-49.4016 570.455 -55.6144 591.153 -57.3123 626.659C-58.7422 656.562 -51.8947 689.388 -46.5709 702.589C-46.5709 702.589 -12.7292 655.333 -1.2086 620.584Z" fill="#FCB951"/>
<path d="M134.585 675.007L210.059 657.097C210.059 657.097 254.797 649.706 282.085 662.828C301.864 672.339 333.481 699.865 333.481 699.865C333.481 699.865 291.639 707.358 264.768 705.533C243.859 704.113 232.162 700.55 212 695.692C181.39 688.317 134.585 675.007 134.585 675.007C134.585 675.007 139.1 737.275 130.848 770.419C125.225 793.004 115.497 812.445 107.924 825.414C100.351 838.384 80.0582 857.709 80.0582 857.709C80.0582 857.709 69.7952 807.37 75.8646 776.026C82.3133 742.724 113.596 697.833 113.596 697.833L134.585 675.007Z" fill="#FCB951"/>
<path d="M360.574 869.386C326.969 846.792 256.688 870.728 256.688 870.728C256.688 870.728 297.395 892.291 330.436 905.572C358.666 916.919 405.342 926.939 405.342 926.939C405.342 926.939 384.199 885.272 360.574 869.386Z" fill="#FCB951"/>
<path d="M234.469 967.48C246.467 934.943 247.742 879.643 247.742 879.643L247.502 874.864C247.502 874.864 205.781 920.16 196.797 958.559C190.121 987.094 195.845 1033.63 195.845 1033.63C195.845 1033.63 224.116 995.553 234.469 967.48Z" fill="#FCB951"/>
<path d="M319.979 1032.04C317.236 995.478 299.676 946.533 294.846 941.553C288.311 934.815 280.688 934.712 279.539 960.028C278.39 985.343 273.455 1018.01 286.092 1051.55C294.563 1074.04 310.947 1091.68 318.375 1103.96C318.375 1103.96 322.059 1059.75 319.979 1032.04Z" fill="#FCB951"/>
<path fill-rule="evenodd" clip-rule="evenodd" d="M320.531 1154.37L295.411 1112.87C293.42 1109.58 291.014 1106.3 287.978 1102.16C285.752 1099.12 283.188 1095.63 280.201 1091.33C273.823 1082.15 266.769 1070.88 261.865 1057.86C249.903 1026.11 252.049 994.586 253.617 971.541C253.897 967.435 254.158 963.598 254.318 960.076C254.635 953.1 255.422 947.032 256.858 941.976C258.198 937.26 260.66 931.395 265.833 927.25C272.092 922.235 279.5 921.882 285.428 923.898C290.464 925.61 294.231 928.868 296.647 931.358C299.13 933.919 300.864 937.272 301.766 939.068C302.971 941.467 304.241 944.353 305.519 947.516C308.089 953.876 310.971 962.044 313.746 971.107C319.248 989.075 324.681 1011.7 326.176 1031.62C327.291 1046.48 326.847 1065.25 326.181 1079.87C325.844 1087.27 325.441 1093.78 325.122 1098.45C324.962 1100.79 324.823 1102.66 324.724 1103.97C324.674 1104.62 324.634 1105.12 324.606 1105.47C324.592 1105.64 324.581 1105.78 324.574 1105.87L324.562 1106.02L324.561 1106.02C324.561 1106.02 324.561 1106.02 308.876 1104.72L324.561 1106.02L320.531 1154.37ZM295.367 1055.88C295.423 1048.08 295.274 1040.48 294.786 1033.98C293.605 1018.24 289.32 999.385 284.484 983.097C283.297 1003.68 283.06 1024.83 291.323 1046.77C292.493 1049.88 293.857 1052.91 295.367 1055.88ZM287.507 949.519C287.508 949.521 287.49 949.563 287.45 949.639C287.486 949.554 287.506 949.517 287.507 949.519ZM387.467 937.289L390.77 921.9L404.806 914.778L419.745 944.218L387.467 937.289ZM248.386 886.626C251.702 888.304 255.502 890.208 259.642 892.248C274.074 899.361 292.925 908.275 309.994 915.136C325.103 921.209 344.651 926.756 359.969 930.711C367.722 932.712 374.569 934.351 379.482 935.49C381.94 936.06 383.92 936.506 385.292 936.811C385.979 936.964 386.514 937.081 386.881 937.162C387.065 937.202 387.207 937.233 387.305 937.254L387.465 937.288C387.465 937.288 387.467 937.289 390.77 921.9C404.806 914.778 404.805 914.776 404.804 914.774L404.801 914.768L404.774 914.715L404.711 914.592C404.658 914.49 404.585 914.348 404.493 914.17C404.308 913.814 404.043 913.309 403.703 912.671C403.023 911.398 402.042 909.592 400.795 907.389C398.308 902.995 397.291 898.2 390.613 892.518C379.044 882.671 367.171 869.857 352.62 860.073C341.151 852.362 327.49 849.179 314.723 848.126C301.822 847.062 288.616 848.075 277.033 849.756C265.385 851.447 254.934 853.88 247.416 855.878C246.723 856.062 246.053 856.243 245.409 856.42L230.38 863.24L213.442 868.311C209.289 873.315 203.857 880.144 198.152 888.106C186.366 904.555 172.131 927.573 166.9 949.934C163.052 966.383 162.913 986.934 163.519 1002.37C163.829 1010.29 164.357 1017.27 164.807 1022.28C165.032 1024.79 165.239 1026.81 165.392 1028.22C165.468 1028.93 165.531 1029.48 165.576 1029.87C165.598 1030.06 165.616 1030.21 165.629 1030.32L165.651 1030.5C165.651 1030.51 165.652 1030.51 181.273 1028.59L165.652 1030.51L170.455 1069.56L193.909 1037.97L181.273 1028.59C193.909 1037.97 193.911 1037.97 193.911 1037.97L193.914 1037.96L193.943 1037.92L194.017 1037.82C194.08 1037.74 194.169 1037.62 194.283 1037.46C194.512 1037.15 194.84 1036.7 195.257 1036.13C196.091 1034.97 197.281 1033.31 198.736 1031.24C201.642 1027.1 205.625 1021.28 209.948 1014.54C218.418 1001.35 228.864 983.615 234.664 967.886C241.388 949.652 244.85 926.029 246.691 907.913C247.528 899.683 248.057 892.296 248.386 886.626ZM288.934 871.437C299.622 876.484 311.13 881.667 321.734 885.929C331.719 889.943 344.474 893.876 356.646 897.243C350.386 889.035 343.629 881.718 337.22 877.409C331.886 873.823 324.161 871.524 314.299 870.711C306.22 870.044 297.495 870.438 288.934 871.437ZM213.188 922.317C211.318 934.84 208.707 947.296 205.13 956.995C202.712 963.551 199.078 970.952 194.965 978.377C195.322 970.628 196.116 963.237 197.55 957.105C200.104 946.191 206.069 933.982 213.188 922.317ZM354.257 716.07L321.918 721.861L319.144 706.368L329.479 694.497L354.257 716.07ZM136.974 702.524C138.999 703.082 141.122 703.666 143.322 704.268C158.88 708.525 178.426 713.75 193.977 717.496C196.919 718.205 199.719 718.898 202.427 719.568C217.761 723.361 230.196 726.437 249.365 727.739C264.341 728.756 282.732 727.181 296.725 725.515C303.86 724.666 310.119 723.759 314.6 723.063C316.844 722.715 318.649 722.419 319.905 722.207C320.533 722.102 321.024 722.017 321.364 721.958C321.534 721.929 321.667 721.905 321.759 721.889L321.869 721.869L321.912 721.862L321.916 721.861C321.916 721.861 321.918 721.861 319.144 706.368C329.479 694.497 329.477 694.496 329.477 694.496L329.443 694.466L329.361 694.395C329.292 694.335 329.192 694.249 329.065 694.139C328.809 693.919 328.44 693.601 327.968 693.198C327.023 692.391 325.663 691.239 323.974 689.83C320.602 687.018 315.889 683.163 310.526 678.992C300.148 670.921 286.128 660.705 274.569 655.146C257.511 646.944 236.452 645.592 221.279 645.807C213.396 645.92 206.461 646.473 201.487 646.998C198.992 647.262 196.969 647.52 195.543 647.717C194.83 647.816 194.264 647.899 193.862 647.961C193.66 647.991 193.5 648.016 193.382 648.035L193.237 648.058L193.164 648.07C193.16 648.071 193.157 648.071 195.723 663.6L193.157 648.071L192.619 648.16C192.619 648.16 146.964 656.249 121.127 675.78C109.634 684.468 86.9537 694.466 86.9537 694.466L86.3459 695.338L99.2589 704.337C86.3459 695.338 86.3446 695.34 86.3433 695.342L86.2199 695.52C86.1483 695.623 86.0475 695.77 85.9195 695.957C85.6633 696.331 85.2975 696.869 84.8358 697.556C83.9129 698.93 82.6048 700.906 81.0226 703.373C77.864 708.297 73.5834 715.221 69.0833 723.247C60.3242 738.869 49.8078 760.264 46.0756 779.537C42.5645 797.67 43.8678 820.079 45.7029 836.838C46.6456 845.446 47.784 853.017 48.6872 858.442C49.1397 861.159 49.5353 863.351 49.8212 864.88C49.9642 865.645 50.0799 866.245 50.1618 866.663C50.2027 866.872 50.2352 867.036 50.2585 867.152L50.2947 867.332L50.2976 867.346L50.2986 867.352C50.2991 867.354 50.2995 867.356 65.7214 864.212L50.2995 867.356L55.9807 895.221L76.5754 875.609L65.7214 864.212C76.5754 875.609 76.5772 875.608 76.5772 875.608L76.6609 875.528C76.7088 875.482 76.7756 875.418 76.8605 875.336C77.0303 875.173 77.2723 874.939 77.5783 874.642C78.1901 874.047 79.0598 873.195 80.1218 872.137C82.2406 870.025 85.1517 867.064 88.3225 863.665C94.3611 857.193 102.422 848.001 107.179 839.854C115.189 826.137 125.675 805.266 131.784 780.725C136.428 762.07 137.31 736.475 137.213 716.709C137.188 711.651 137.097 706.862 136.974 702.524ZM184.028 682.551C190.089 684.117 195.98 685.6 201.35 686.894C204.569 687.669 207.533 688.4 210.317 689.087C225.449 692.818 235.227 695.228 251.498 696.333C259.8 696.897 270.084 696.454 280.178 695.583C273.17 690.553 266.308 686.102 260.927 683.515C250.697 678.596 235.743 677.083 221.726 677.282C215.014 677.378 209.059 677.852 204.792 678.302C202.666 678.527 200.98 678.743 199.853 678.899C199.388 678.963 199.019 679.017 198.754 679.057L184.028 682.551ZM105.727 723.189C103.083 727.398 99.8713 732.7 96.5398 738.642C88.0456 753.791 79.6964 771.492 76.9798 785.521C74.648 797.563 75.1008 813.942 76.5464 829.05C77.9353 827.206 79.1149 825.489 79.9956 823.981C87.1324 811.759 96.1027 793.749 101.238 773.12C104.463 760.167 105.593 741.123 105.727 723.189ZM270.403 554.26L228.436 553.46L228.736 537.723L239.309 526.064L270.403 554.26ZM13.9007 508.185C14.4358 508.484 14.9784 508.785 15.5282 509.089C27.8723 515.912 44.4872 524.326 60.0475 529.557C85.3438 538.059 109.369 543.086 132.923 546.688C151.722 549.563 175.741 551.241 194.699 552.207C204.254 552.694 212.666 553.006 218.694 553.197C221.709 553.293 224.131 553.358 225.806 553.4C226.643 553.421 227.294 553.435 227.739 553.445L228.431 553.46L228.434 553.46C228.434 553.46 228.436 553.46 228.736 537.723C239.309 526.064 239.307 526.063 239.305 526.061L239.251 526.012L239.123 525.896C239.014 525.798 238.859 525.66 238.66 525.482C238.262 525.127 237.687 524.616 236.948 523.968C235.471 522.673 233.34 520.828 230.67 518.581C225.337 514.092 217.815 507.964 209.035 501.393C191.854 488.533 168.45 472.892 146.784 465.343C141.404 463.469 136.118 461.462 130.851 459.462C104.155 449.325 77.9308 439.366 42.3783 447.814C31.293 450.447 18.9886 456.225 10.1943 460.793C6.2787 462.827 2.81564 464.751 0.134041 466.287L-1.43471 478.936L-7.41996 483.032L-6.98205 488.474C-6.98205 488.474 -13.81 487.123 -18.3918 489.392C-22.9736 491.661 -28.7174 494.499 -32.3353 498.752C-33.3915 499.993 -34.467 501.257 -35.5663 502.561C-42.3817 510.646 -49.5634 519.682 -56.2861 532.456C-73.7995 565.733 -80.7141 588.662 -82.5317 626.669C-84.0623 658.678 -76.8977 693.785 -70.6661 709.238L-59.952 735.806L-43.2729 712.515L-56.0692 703.352C-43.2729 712.515 -43.2709 712.512 -43.2709 712.512L-43.268 712.509L-43.26 712.497L-43.2348 712.462L-43.1482 712.34C-43.0745 712.237 -42.9693 712.089 -42.8343 711.898C-42.5643 711.516 -42.1749 710.963 -41.6801 710.252C-40.6905 708.832 -39.2772 706.783 -37.5509 704.223C-34.1025 699.108 -29.3837 691.919 -24.2881 683.603C-14.2781 667.266 -2.12771 645.483 4.23263 626.299C13.3488 598.802 20.0542 563.323 19.7887 535.741C19.6906 525.551 14.3411 515.951 13.9007 508.185ZM34.8846 483.789C45.8798 489.697 58.6865 495.89 70.0766 499.719C93.169 507.481 115.326 512.153 137.681 515.571C150.342 517.508 166.028 518.897 180.926 519.876C166.331 509.603 150.252 499.885 136.428 495.069C129.511 492.66 123.272 490.332 117.504 488.18C91.5461 478.496 75.1548 472.38 49.655 478.439C45.339 479.465 40.1643 481.428 34.8846 483.789ZM-16.7638 529.286C-20.9243 534.586 -24.7618 540.146 -28.4302 547.116C-44.0002 576.701 -49.5112 595.169 -51.0894 628.173C-51.6646 640.203 -50.7679 652.747 -49.2075 663.995C-39.9884 648.689 -30.4706 630.944 -25.6463 616.393C-18.2658 594.131 -16.4004 562.817 -16.6606 535.783C-16.6819 533.573 -16.7172 531.404 -16.7638 529.286ZM169.423 289.465L162.246 275.457L169.591 261.537L196.362 275.662L169.423 289.465ZM-125.77 291.063C-116.553 293.744 -107.163 296.749 -102.116 299.024C-63.9731 316.219 -44.9292 318.325 -11.0959 322.065C-9.70687 322.219 -8.29299 322.375 -6.85185 322.535C27.4658 326.351 49.2556 328.236 85.0568 321.402C103.274 317.924 124.616 309.722 140.722 302.807C148.925 299.285 156.06 295.97 161.149 293.532C163.697 292.312 165.74 291.308 167.158 290.603C167.867 290.25 168.421 289.972 168.803 289.779C168.994 289.683 169.143 289.607 169.247 289.554L169.416 289.468L169.42 289.466C169.42 289.466 169.423 289.465 162.246 275.457C169.591 261.537 169.589 261.536 169.587 261.535L169.581 261.532L169.52 261.499L169.362 261.417C169.279 261.373 169.173 261.318 169.046 261.252L168.796 261.123C168.31 260.871 167.607 260.511 166.708 260.056C164.909 259.146 162.32 257.859 159.094 256.312C152.652 253.224 143.619 249.079 133.231 244.843C112.925 236.563 85.6886 227.194 62.302 225.739C20.9106 223.165 -31.7238 222.845 -67.4296 232.273C-83.0802 236.405 -97.5598 241.118 -110.391 245.31L-110.931 245.487C-123.751 249.676 -134.554 253.206 -143.948 255.486L-144.038 271.662L-151.698 278.195L-141.484 290.17C-151.698 278.195 -151.7 278.197 -151.701 278.198L-151.706 278.202L-151.719 278.213L-151.758 278.247L-151.892 278.362C-152.006 278.46 -152.168 278.6 -152.376 278.78C-152.792 279.14 -153.391 279.662 -154.152 280.332C-155.673 281.673 -157.846 283.613 -160.505 286.052C-165.816 290.924 -173.101 297.822 -181.021 305.946C-196.539 321.865 -215.706 343.712 -226.48 364.762C-240.453 392.064 -244.328 409.976 -250.199 438.11C-254.889 460.584 -256.18 489.163 -256.386 511.411C-256.491 522.683 -256.317 532.613 -256.117 539.73C-256.017 543.292 -255.911 546.158 -255.828 548.145C-255.787 549.139 -255.752 549.913 -255.727 550.446C-255.714 550.712 -255.704 550.918 -255.697 551.06L-255.686 551.273L-255.686 551.288L-255.685 551.292C-255.685 551.292 -255.685 551.296 -239.968 550.47L-255.685 551.296L-253.59 591.201L-227.909 560.585L-239.968 550.47C-227.909 560.585 -227.907 560.583 -227.907 560.583L-227.904 560.579L-227.895 560.568L-227.761 560.408C-227.671 560.301 -227.542 560.145 -227.375 559.944C-227.041 559.542 -226.557 558.956 -225.939 558.203C-224.702 556.696 -222.928 554.515 -220.749 551.786C-216.393 546.333 -210.397 538.663 -203.822 529.779C-190.843 512.245 -174.956 489.12 -165.276 468.777C-151.781 440.417 -146.521 422.923 -139.108 393.201C-134.094 373.101 -130.784 347.363 -128.728 327.16C-127.689 316.953 -126.952 307.956 -126.474 301.507C-126.234 298.281 -126.059 295.686 -125.944 293.889C-125.886 292.99 -125.843 292.291 -125.814 291.811C-125.8 291.571 -125.789 291.386 -125.782 291.259L-125.77 291.063ZM-125.809 291.052C-126.058 291.037 -127.898 290.933 -141.484 290.17L-125.817 291.049C-125.815 291.05 -125.812 291.051 -125.809 291.052ZM-87.6213 271.026C-55.0963 285.53 -39.9249 287.207 -7.67884 290.773C-6.27689 290.928 -4.8427 291.087 -3.37336 291.25C30.0333 294.964 48.059 296.418 79.1544 290.482C92.7428 287.888 109.798 281.664 124.742 275.394C123.629 274.928 122.496 274.46 121.345 273.991C101.525 265.909 78.3012 258.274 60.3477 257.157C19.0588 254.588 -29.0548 254.697 -59.3937 262.708C-69.2264 265.304 -78.6177 268.158 -87.6213 271.026ZM-224.817 505.167C-224.426 484.793 -223.015 461.937 -219.384 444.54C-213.622 416.929 -210.417 402.47 -198.458 379.103C-190.376 363.311 -175.21 345.317 -160.703 330.216C-162.729 348.736 -165.665 369.604 -169.65 385.584C-176.764 414.104 -181.412 429.429 -193.7 455.252C-201.081 470.764 -213.241 489.159 -224.817 505.167Z" fill="#FCB951"/>
<path d="M295.367 1055.88C295.423 1048.08 295.274 1040.48 294.786 1033.98C293.605 1018.24 289.32 999.385 284.484 983.097C283.297 1003.68 283.06 1024.83 291.323 1046.77C292.493 1049.88 293.857 1052.91 295.367 1055.88Z" fill="#FCB951"/>
<path d="M287.507 949.519C287.508 949.521 287.49 949.563 287.45 949.639C287.486 949.554 287.506 949.517 287.507 949.519Z" fill="#FCB951"/>
<path fill-rule="evenodd" clip-rule="evenodd" d="M320.531 1154.37L295.411 1112.87C293.42 1109.58 291.014 1106.3 287.978 1102.16C285.752 1099.12 283.188 1095.63 280.201 1091.33C273.823 1082.15 266.769 1070.88 261.865 1057.86C249.903 1026.11 252.049 994.586 253.617 971.541C253.897 967.435 254.158 963.598 254.318 960.076C254.635 953.1 255.422 947.032 256.858 941.976C258.198 937.26 260.66 931.395 265.833 927.25C272.092 922.235 279.5 921.882 285.428 923.898C290.464 925.61 294.231 928.868 296.647 931.358C299.13 933.919 300.864 937.272 301.766 939.068C302.971 941.467 304.241 944.353 305.519 947.516C308.089 953.876 310.971 962.044 313.746 971.107C319.248 989.075 324.681 1011.7 326.176 1031.62C327.291 1046.48 326.847 1065.25 326.181 1079.87C325.844 1087.27 325.441 1093.78 325.122 1098.45C324.962 1100.79 324.823 1102.66 324.724 1103.97C324.674 1104.62 324.634 1105.12 324.606 1105.47C324.592 1105.64 324.581 1105.78 324.574 1105.87L324.562 1106.02L324.561 1106.02C324.561 1106.02 324.561 1106.02 308.876 1104.72L324.561 1106.02L320.531 1154.37ZM295.367 1055.88C295.423 1048.08 295.274 1040.48 294.786 1033.98C293.605 1018.24 289.32 999.385 284.484 983.097C283.297 1003.68 283.06 1024.83 291.323 1046.77C292.493 1049.88 293.857 1052.91 295.367 1055.88ZM287.507 949.519C287.508 949.521 287.49 949.563 287.45 949.639C287.486 949.554 287.506 949.517 287.507 949.519ZM387.467 937.289L390.77 921.9L404.806 914.778L419.745 944.218L387.467 937.289ZM248.386 886.626C251.702 888.304 255.502 890.208 259.642 892.248C274.074 899.361 292.925 908.275 309.994 915.136C325.103 921.209 344.651 926.756 359.969 930.711C367.722 932.712 374.569 934.351 379.482 935.49C381.94 936.06 383.92 936.506 385.292 936.811C385.979 936.964 386.514 937.081 386.881 937.162C387.065 937.202 387.207 937.233 387.305 937.254L387.465 937.288C387.465 937.288 387.467 937.289 390.77 921.9C404.806 914.778 404.805 914.776 404.804 914.774L404.801 914.768L404.774 914.715L404.711 914.592C404.658 914.49 404.585 914.348 404.493 914.17C404.308 913.814 404.043 913.309 403.703 912.671C403.023 911.398 402.042 909.592 400.795 907.389C398.308 902.995 397.291 898.2 390.613 892.518C379.044 882.671 367.171 869.857 352.62 860.073C341.151 852.362 327.49 849.179 314.723 848.126C301.822 847.062 288.616 848.075 277.033 849.756C265.385 851.447 254.934 853.88 247.416 855.878C246.723 856.062 246.053 856.243 245.409 856.42L230.38 863.24L213.442 868.311C209.289 873.315 203.857 880.144 198.152 888.106C186.366 904.555 172.131 927.573 166.9 949.934C163.052 966.383 162.913 986.934 163.519 1002.37C163.829 1010.29 164.357 1017.27 164.807 1022.28C165.032 1024.79 165.239 1026.81 165.392 1028.22C165.468 1028.93 165.531 1029.48 165.576 1029.87C165.598 1030.06 165.616 1030.21 165.629 1030.32L165.651 1030.5C165.651 1030.51 165.652 1030.51 181.273 1028.59L165.652 1030.51L170.455 1069.56L193.909 1037.97L181.273 1028.59C193.909 1037.97 193.911 1037.97 193.911 1037.97L193.914 1037.96L193.943 1037.92L194.017 1037.82C194.08 1037.74 194.169 1037.62 194.283 1037.46C194.512 1037.15 194.84 1036.7 195.257 1036.13C196.091 1034.97 197.281 1033.31 198.736 1031.24C201.642 1027.1 205.625 1021.28 209.948 1014.54C218.418 1001.35 228.864 983.615 234.664 967.886C241.388 949.652 244.85 926.029 246.691 907.913C247.528 899.683 248.057 892.296 248.386 886.626ZM288.934 871.437C299.622 876.484 311.13 881.667 321.734 885.929C331.719 889.943 344.474 893.876 356.646 897.243C350.386 889.035 343.629 881.718 337.22 877.409C331.886 873.823 324.161 871.524 314.299 870.711C306.22 870.044 297.495 870.438 288.934 871.437ZM213.188 922.317C211.318 934.84 208.707 947.296 205.13 956.995C202.712 963.551 199.078 970.952 194.965 978.377C195.322 970.628 196.116 963.237 197.55 957.105C200.104 946.191 206.069 933.982 213.188 922.317ZM354.257 716.07L321.918 721.861L319.144 706.368L329.479 694.497L354.257 716.07ZM136.974 702.524C138.999 703.082 141.122 703.666 143.322 704.268C158.88 708.525 178.426 713.75 193.977 717.496C196.919 718.205 199.719 718.898 202.427 719.568C217.761 723.361 230.196 726.437 249.365 727.739C264.341 728.756 282.732 727.181 296.725 725.515C303.86 724.666 310.119 723.759 314.6 723.063C316.844 722.715 318.649 722.419 319.905 722.207C320.533 722.102 321.024 722.017 321.364 721.958C321.534 721.929 321.667 721.905 321.759 721.889L321.869 721.869L321.912 721.862L321.916 721.861C321.916 721.861 321.918 721.861 319.144 706.368C329.479 694.497 329.477 694.496 329.477 694.496L329.443 694.466L329.361 694.395C329.292 694.335 329.192 694.249 329.065 694.139C328.809 693.919 328.44 693.601 327.968 693.198C327.023 692.391 325.663 691.239 323.974 689.83C320.602 687.018 315.889 683.163 310.526 678.992C300.148 670.921 286.128 660.705 274.569 655.146C257.511 646.944 236.452 645.592 221.279 645.807C213.396 645.92 206.461 646.473 201.487 646.998C198.992 647.262 196.969 647.52 195.543 647.717C194.83 647.816 194.264 647.899 193.862 647.961C193.66 647.991 193.5 648.016 193.382 648.035L193.237 648.058L193.164 648.07C193.16 648.071 193.157 648.071 195.723 663.6L193.157 648.071L192.619 648.16C192.619 648.16 146.964 656.249 121.127 675.78C109.634 684.468 86.9537 694.466 86.9537 694.466L86.3459 695.338L99.2589 704.337C86.3459 695.338 86.3446 695.34 86.3433 695.342L86.2199 695.52C86.1483 695.623 86.0475 695.77 85.9195 695.957C85.6633 696.331 85.2975 696.869 84.8358 697.556C83.9129 698.93 82.6048 700.906 81.0226 703.373C77.864 708.297 73.5834 715.221 69.0833 723.247C60.3242 738.869 49.8078 760.264 46.0756 779.537C42.5645 797.67 43.8678 820.079 45.7029 836.838C46.6456 845.446 47.784 853.017 48.6872 858.442C49.1397 861.159 49.5353 863.351 49.8212 864.88C49.9642 865.645 50.0799 866.245 50.1618 866.663C50.2027 866.872 50.2352 867.036 50.2585 867.152L50.2947 867.332L50.2976 867.346L50.2986 867.352C50.2991 867.354 50.2995 867.356 65.7214 864.212L50.2995 867.356L55.9807 895.221L76.5754 875.609L65.7214 864.212C76.5754 875.609 76.5772 875.608 76.5772 875.608L76.6609 875.528C76.7088 875.482 76.7756 875.418 76.8605 875.336C77.0303 875.173 77.2723 874.939 77.5783 874.642C78.1901 874.047 79.0598 873.195 80.1218 872.137C82.2406 870.025 85.1517 867.064 88.3225 863.665C94.3611 857.193 102.422 848.001 107.179 839.854C115.189 826.137 125.675 805.266 131.784 780.725C136.428 762.07 137.31 736.475 137.213 716.709C137.188 711.651 137.097 706.862 136.974 702.524ZM184.028 682.551C190.089 684.117 195.98 685.6 201.35 686.894C204.569 687.669 207.533 688.4 210.317 689.087C225.449 692.818 235.227 695.228 251.498 696.333C259.8 696.897 270.084 696.454 280.178 695.583C273.17 690.553 266.308 686.102 260.927 683.515C250.697 678.596 235.743 677.083 221.726 677.282C215.014 677.378 209.059 677.852 204.792 678.302C202.666 678.527 200.98 678.743 199.853 678.899C199.388 678.963 199.019 679.017 198.754 679.057L184.028 682.551ZM105.727 723.189C103.083 727.398 99.8713 732.7 96.5398 738.642C88.0456 753.791 79.6964 771.492 76.9798 785.521C74.648 797.563 75.1008 813.942 76.5464 829.05C77.9353 827.206 79.1149 825.489 79.9956 823.981C87.1324 811.759 96.1027 793.749 101.238 773.12C104.463 760.167 105.593 741.123 105.727 723.189ZM270.403 554.26L228.436 553.46L228.736 537.723L239.309 526.064L270.403 554.26ZM13.9007 508.185C14.4358 508.484 14.9784 508.785 15.5282 509.089C27.8723 515.912 44.4872 524.326 60.0475 529.557C85.3438 538.059 109.369 543.086 132.923 546.688C151.722 549.563 175.741 551.241 194.699 552.207C204.254 552.694 212.666 553.006 218.694 553.197C221.709 553.293 224.131 553.358 225.806 553.4C226.643 553.421 227.294 553.435 227.739 553.445L228.431 553.46L228.434 553.46C228.434 553.46 228.436 553.46 228.736 537.723C239.309 526.064 239.307 526.063 239.305 526.061L239.251 526.012L239.123 525.896C239.014 525.798 238.859 525.66 238.66 525.482C238.262 525.127 237.687 524.616 236.948 523.968C235.471 522.673 233.34 520.828 230.67 518.581C225.337 514.092 217.815 507.964 209.035 501.393C191.854 488.533 168.45 472.892 146.784 465.343C141.404 463.469 136.118 461.462 130.851 459.462C104.155 449.325 77.9308 439.366 42.3783 447.814C31.293 450.447 18.9886 456.225 10.1943 460.793C6.2787 462.827 2.81564 464.751 0.134041 466.287L-1.43471 478.936L-7.41996 483.032L-6.98205 488.474C-6.98205 488.474 -13.81 487.123 -18.3918 489.392C-22.9736 491.661 -28.7174 494.499 -32.3353 498.752C-33.3915 499.993 -34.467 501.257 -35.5663 502.561C-42.3817 510.646 -49.5634 519.682 -56.2861 532.456C-73.7995 565.733 -80.7141 588.662 -82.5317 626.669C-84.0623 658.678 -76.8977 693.785 -70.6661 709.238L-59.952 735.806L-43.2729 712.515L-56.0692 703.352C-43.2729 712.515 -43.2709 712.512 -43.2709 712.512L-43.268 712.509L-43.26 712.497L-43.2348 712.462L-43.1482 712.34C-43.0745 712.237 -42.9693 712.089 -42.8343 711.898C-42.5643 711.516 -42.1749 710.963 -41.6801 710.252C-40.6905 708.832 -39.2772 706.783 -37.5509 704.223C-34.1025 699.108 -29.3837 691.919 -24.2881 683.603C-14.2781 667.266 -2.12771 645.483 4.23263 626.299C13.3488 598.802 20.0542 563.323 19.7887 535.741C19.6906 525.551 14.3411 515.951 13.9007 508.185ZM34.8846 483.789C45.8798 489.697 58.6865 495.89 70.0766 499.719C93.169 507.481 115.326 512.153 137.681 515.571C150.342 517.508 166.028 518.897 180.926 519.876C166.331 509.603 150.252 499.885 136.428 495.069C129.511 492.66 123.272 490.332 117.504 488.18C91.5461 478.496 75.1548 472.38 49.655 478.439C45.339 479.465 40.1643 481.428 34.8846 483.789ZM-16.7638 529.286C-20.9243 534.586 -24.7618 540.146 -28.4302 547.116C-44.0002 576.701 -49.5112 595.169 -51.0894 628.173C-51.6646 640.203 -50.7679 652.747 -49.2075 663.995C-39.9884 648.689 -30.4706 630.944 -25.6463 616.393C-18.2658 594.131 -16.4004 562.817 -16.6606 535.783C-16.6819 533.573 -16.7172 531.404 -16.7638 529.286ZM169.423 289.465L162.246 275.457L169.591 261.537L196.362 275.662L169.423 289.465ZM-125.77 291.063C-116.553 293.744 -107.163 296.749 -102.116 299.024C-63.9731 316.219 -44.9292 318.325 -11.0959 322.065C-9.70687 322.219 -8.29299 322.375 -6.85185 322.535C27.4658 326.351 49.2556 328.236 85.0568 321.402C103.274 317.924 124.616 309.722 140.722 302.807C148.925 299.285 156.06 295.97 161.149 293.532C163.697 292.312 165.74 291.308 167.158 290.603C167.867 290.25 168.421 289.972 168.803 289.779C168.994 289.683 169.143 289.607 169.247 289.554L169.416 289.468L169.42 289.466C169.42 289.466 169.423 289.465 162.246 275.457C169.591 261.537 169.589 261.536 169.587 261.535L169.581 261.532L169.52 261.499L169.362 261.417C169.279 261.373 169.173 261.318 169.046 261.252L168.796 261.123C168.31 260.871 167.607 260.511 166.708 260.056C164.909 259.146 162.32 257.859 159.094 256.312C152.652 253.224 143.619 249.079 133.231 244.843C112.925 236.563 85.6886 227.194 62.302 225.739C20.9106 223.165 -31.7238 222.845 -67.4296 232.273C-83.0802 236.405 -97.5598 241.118 -110.391 245.31L-110.931 245.487C-123.751 249.676 -134.554 253.206 -143.948 255.486L-144.038 271.662L-151.698 278.195L-141.484 290.17C-151.698 278.195 -151.7 278.197 -151.701 278.198L-151.706 278.202L-151.719 278.213L-151.758 278.247L-151.892 278.362C-152.006 278.46 -152.168 278.6 -152.376 278.78C-152.792 279.14 -153.391 279.662 -154.152 280.332C-155.673 281.673 -157.846 283.613 -160.505 286.052C-165.816 290.924 -173.101 297.822 -181.021 305.946C-196.539 321.865 -215.706 343.712 -226.48 364.762C-240.453 392.064 -244.328 409.976 -250.199 438.11C-254.889 460.584 -256.18 489.163 -256.386 511.411C-256.491 522.683 -256.317 532.613 -256.117 539.73C-256.017 543.292 -255.911 546.158 -255.828 548.145C-255.787 549.139 -255.752 549.913 -255.727 550.446C-255.714 550.712 -255.704 550.918 -255.697 551.06L-255.686 551.273L-255.686 551.288L-255.685 551.292C-255.685 551.292 -255.685 551.296 -239.968 550.47L-255.685 551.296L-253.59 591.201L-227.909 560.585L-239.968 550.47C-227.909 560.585 -227.907 560.583 -227.907 560.583L-227.904 560.579L-227.895 560.568L-227.761 560.408C-227.671 560.301 -227.542 560.145 -227.375 559.944C-227.041 559.542 -226.557 558.956 -225.939 558.203C-224.702 556.696 -222.928 554.515 -220.749 551.786C-216.393 546.333 -210.397 538.663 -203.822 529.779C-190.843 512.245 -174.956 489.12 -165.276 468.777C-151.781 440.417 -146.521 422.923 -139.108 393.201C-134.094 373.101 -130.784 347.363 -128.728 327.16C-127.689 316.953 -126.952 307.956 -126.474 301.507C-126.234 298.281 -126.059 295.686 -125.944 293.889C-125.886 292.99 -125.843 292.291 -125.814 291.811C-125.8 291.571 -125.789 291.386 -125.782 291.259L-125.77 291.063ZM-125.809 291.052C-126.058 291.037 -127.898 290.933 -141.484 290.17L-125.817 291.049C-125.815 291.05 -125.812 291.051 -125.809 291.052ZM-87.6213 271.026C-55.0963 285.53 -39.9249 287.207 -7.67884 290.773C-6.27689 290.928 -4.8427 291.087 -3.37336 291.25C30.0333 294.964 48.059 296.418 79.1544 290.482C92.7428 287.888 109.798 281.664 124.742 275.394C123.629 274.928 122.496 274.46 121.345 273.991C101.525 265.909 78.3012 258.274 60.3477 257.157C19.0588 254.588 -29.0548 254.697 -59.3937 262.708C-69.2264 265.304 -78.6177 268.158 -87.6213 271.026ZM-224.817 505.167C-224.426 484.793 -223.015 461.937 -219.384 444.54C-213.622 416.929 -210.417 402.47 -198.458 379.103C-190.376 363.311 -175.21 345.317 -160.703 330.216C-162.729 348.736 -165.665 369.604 -169.65 385.584C-176.764 414.104 -181.412 429.429 -193.7 455.252C-201.081 470.764 -213.241 489.159 -224.817 505.167Z" fill="#FCB951"/>
<path d="M295.367 1055.88C295.423 1048.08 295.274 1040.48 294.786 1033.98C293.605 1018.24 289.32 999.385 284.484 983.097C283.297 1003.68 283.06 1024.83 291.323 1046.77C292.493 1049.88 293.857 1052.91 295.367 1055.88Z" fill="#FCB951"/>
<path d="M287.507 949.519C287.508 949.521 287.49 949.563 287.45 949.639C287.486 949.554 287.506 949.517 287.507 949.519Z" fill="#FCB951"/>
<path d="M-312.781 -29.3884L-232.305 126.342L-247.931 184.216L-152.999 261.592L-47.1349 417.672L40.7287 552.233L151.199 717.991L223.139 839L268.954 926.704" stroke="#FCB951" stroke-width="8.45084"/>
<path d="M182.235 1014.53L210.655 909.846L236.878 867.064M242.43 864.704C270.951 868.31 332.43 889.042 346.162 893.2C346.162 893.2 396.686 926.456 407.91 935.123M66.8031 852.519C72.1144 823.316 87.5072 758.984 87.5072 758.984L124.594 684.706M130.468 680.405C156.14 678.34 229.318 679.15 234.642 678.722C239.967 678.293 305.294 700.47 326.735 705.284M-64.2953 697.991C-53.9186 656.485 -32.9073 571.921 -31.8757 565.713C-30.844 559.506 -11.1585 513.965 -1.44474 491.971M3.40218 486.796L104.554 489.183L213.368 527.319M-87.3145 269.208L20.5863 266.267L117.689 271.851M267.846 924.862L286.185 980.326L290.622 1035.47L308.185 1099.13" stroke="#FCB951" stroke-width="2.53525"/>
</svg>
