<svg width="1000" height="1000" viewBox="0 0 1000 1000" fill="none" xmlns="http://www.w3.org/2000/svg">
<circle cx="500" cy="500" r="500" fill="#77645C"/>
<path d="M413.604 274.042V234.167C413.604 223.267 404.566 214.229 393.667 214.229C382.768 214.229 373.729 223.267 373.729 234.167V275.636C380.375 274.839 386.489 274.042 393.667 274.042H413.604Z" fill="white"/>
<path d="M626.271 275.636V234.167C626.271 223.267 617.233 214.229 606.333 214.229C595.434 214.229 586.396 223.267 586.396 234.167V274.042H606.333C613.511 274.042 619.625 274.839 626.271 275.636Z" fill="white"/>
<path d="M626.271 275.637V313.917C626.271 324.816 617.233 333.854 606.333 333.854C595.434 333.854 586.396 324.816 586.396 313.917V274.042H413.604V313.917C413.604 324.816 404.566 333.854 393.667 333.854C382.768 333.854 373.729 324.816 373.729 313.917V275.637C295.308 282.814 260.75 333.322 260.75 406.958V632.916C260.75 712.666 300.625 765.833 393.667 765.833H606.333C699.375 765.833 739.25 712.666 739.25 632.916V406.958C739.25 333.322 704.692 282.814 626.271 275.637ZM500 626.271H393.667C382.768 626.271 373.729 617.232 373.729 606.333C373.729 595.434 382.768 586.396 393.667 586.396H500C510.899 586.396 519.938 595.434 519.938 606.333C519.938 617.232 510.899 626.271 500 626.271ZM606.333 493.354H393.667C382.768 493.354 373.729 484.316 373.729 473.416C373.729 462.517 382.768 453.479 393.667 453.479H606.333C617.233 453.479 626.271 462.517 626.271 473.416C626.271 484.316 617.233 493.354 606.333 493.354Z" fill="white"/>
</svg>
