<svg width="1000" height="1000" viewBox="0 0 1000 1000" fill="none" xmlns="http://www.w3.org/2000/svg">
<circle cx="500" cy="500" r="500" fill="#EC5757"/>
<path d="M720.778 319.19L546.141 218.348C517.623 201.884 482.343 201.884 453.531 218.348L279.19 319.19C250.672 335.654 233.032 366.23 233.032 399.452V600.548C233.032 633.476 250.672 664.052 279.19 680.81L453.825 781.652C482.343 798.116 517.623 798.116 546.436 781.652L721.072 680.81C749.59 664.346 767.23 633.77 767.23 600.548V399.452C766.936 366.23 749.296 335.948 720.778 319.19ZM566.134 541.16L535.557 558.8L504.981 576.44C465.879 599.078 433.834 580.556 433.834 535.28V500V464.72C433.834 419.444 465.879 400.922 504.981 423.56L535.557 441.2L566.134 458.84C605.236 481.478 605.236 518.522 566.134 541.16Z" fill="white"/>
</svg>
