<svg width="1000" height="1000" viewBox="0 0 1000 1000" fill="none" xmlns="http://www.w3.org/2000/svg">
<circle cx="500" cy="500" r="500" fill="#49ACC5"/>
<path d="M601.009 239.762C590.11 228.863 571.235 236.306 571.235 251.459V344.234C571.235 383.046 604.199 415.212 644.34 415.212C669.594 415.478 704.684 415.478 734.723 415.478C749.875 415.478 757.85 397.667 747.217 387.034C708.937 348.488 640.352 279.105 601.009 239.762Z" fill="white"/>
<path d="M738.85 449.139H657.641C591.044 449.139 536.811 394.906 536.811 328.309V247.1C536.811 231.645 524.166 219 508.711 219H389.567C303.019 219 233.05 275.2 233.05 375.517V624.483C233.05 724.8 303.019 781 389.567 781H610.433C696.981 781 766.95 724.8 766.95 624.483V477.239C766.95 461.784 754.305 449.139 738.85 449.139ZM485.95 661.575H373.55C362.029 661.575 352.475 652.021 352.475 640.5C352.475 628.979 362.029 619.425 373.55 619.425H485.95C497.471 619.425 507.025 628.979 507.025 640.5C507.025 652.021 497.471 661.575 485.95 661.575ZM542.15 549.175H373.55C362.029 549.175 352.475 539.621 352.475 528.1C352.475 516.579 362.029 507.025 373.55 507.025H542.15C553.671 507.025 563.225 516.579 563.225 528.1C563.225 539.621 553.671 549.175 542.15 549.175Z" fill="white"/>
</svg>
