<svg width="1000" height="1000" viewBox="0 0 1000 1000" fill="none" xmlns="http://www.w3.org/2000/svg">
<circle cx="500" cy="500" r="500" fill="#77645C"/>
<path d="M567.304 681.862H605.095V766.761C605.095 779.26 621.239 785.157 629.801 775.722L722.383 674.315C730.456 665.473 723.975 651.676 711.744 651.676H673.953V566.777C673.953 554.278 657.807 548.382 649.247 557.816L556.662 659.223C548.714 668.068 555.195 681.862 567.304 681.862Z" fill="white"/>
<path fill-rule="evenodd" clip-rule="evenodd" d="M399.515 234.167H600.485C700.97 234.167 725.958 261.016 725.692 368.147V627.507C721.373 625.93 716.691 625.056 711.763 625.056H700.555V566.74C700.555 528.021 653.216 513.935 629.615 539.878L537.052 641.261L536.914 641.415C512.874 668.158 533.179 706.951 565.493 708.371L538.812 744.035C517.279 772.479 482.455 772.479 460.922 744.035L434.073 708.147C415.199 682.893 381.97 681.032 360.172 704.16L359.906 704.426C312.853 754.934 274.042 738.186 274.042 667.475V368.147C274.042 261.016 299.03 234.167 399.515 234.167ZM672.249 729.215C662.238 724.685 651.291 716.396 639.828 704.16C629.838 693.439 617.448 688.024 605.116 687.755V681.827H567.322C555.216 681.827 548.733 668.03 556.684 659.186L649.265 557.779C657.828 548.347 673.972 554.243 673.972 566.74V651.639H711.763C719.148 651.639 724.438 656.669 725.692 662.602V667.209C725.692 667.483 725.692 667.754 725.69 668.025C725.219 670.216 724.153 672.364 722.404 674.28L672.249 729.215ZM420.25 493.354H579.75C590.649 493.354 599.687 484.316 599.687 473.417C599.687 462.517 590.649 453.479 579.75 453.479H420.25C409.351 453.479 400.312 462.517 400.312 473.417C400.312 484.316 409.351 493.354 420.25 493.354ZM393.667 387.021H606.333C617.232 387.021 626.271 377.982 626.271 367.083C626.271 356.184 617.232 347.146 606.333 347.146H393.667C382.767 347.146 373.729 356.184 373.729 367.083C373.729 377.982 382.767 387.021 393.667 387.021Z" fill="white"/>
</svg>
